<?xml version="1.0" encoding="UTF-8"?>
<svg viewBox="0 0 1920 1920" xmlns="http://www.w3.org/2000/svg">
<circle cx="960" cy="960" r="960" fill="#290C29"/>
<path d="m951.47 11.799c-10.478 4.7675-13.698 18.808-6.258 27.296 4.288 4.8946 7.919 6.589 14.119 6.589 9.961 0 16.455-6.1718 17.188-16.336 0.477-6.6116-0.909-10.216-5.589-14.532-5.566-5.1344-12.455-6.2025-19.46-3.0167zm-45.846 0.4562c-4.773 2.087-10.715 9.2777-10.896 13.187-0.62 13.379 6.354 21.267 18.802 21.267 10.557 0 17.767-8.2855 16.958-19.488-0.888-12.304-13.54-19.919-24.864-14.966zm93.041 0.0194c-6.737 2.9399-11.562 12.402-10.193 19.99 0.943 5.2319 4.862 10.765 9.029 12.746 8.608 4.093 18.698 1.3541 24.038-6.5275 2.08-3.0618 2.36-4.5328 2.04-10.459-0.34-6.2241-0.72-7.2583-3.92-10.629-6-6.3061-13.88-8.2291-20.994-5.1222zm-141.26 4.6251c-1.764 1.0773-4.526 3.6932-6.138 5.813-2.512 3.3027-2.929 4.7737-2.914 10.266 0.017 5.5947 0.417 6.9098 3.142 10.327 6.029 7.5598 15.254 9.6509 23.093 5.236 5.877-3.3099 8.494-8.1481 8.513-15.74 0.018-7.3548-2.786-12.378-8.802-15.765-4.844-2.7276-12.553-2.7902-16.894-0.1373zm186.43 0.4571c-8.92 5.4092-11.49 16.514-5.88 25.381 3.56 5.6131 8.28 8.0712 15.52 8.0712 9.4 0 15.82-6.0929 17.01-16.147 0.63-5.3784-0.95-9.8281-5.14-14.446-5.32-5.854-14.55-7.082-21.51-2.8599zm-230.12 4.1423c-7.504 2.784-11.923 9.1813-11.923 17.26 0 13.861 14.312 22.372 26.638 15.84 11.71-6.2036 12.261-25.139 0.928-31.847-4.083-2.4171-11.01-2.9717-15.643-1.2526zm279.12 0.0522c-11.87 4.3411-15.6 20.525-6.77 29.375 11.82 11.841 30.81 4.3586 30.81-12.136 0-12.485-12.51-21.454-24.04-17.238zm-326.33 9.2859c-12.607 6.8094-14.104 22.371-2.97 30.881 4.898 3.7434 13.574 4.4835 18.826 1.6052 5.819-3.19 9.5-9.3116 9.5-15.801 0-6.6116-2.098-11.017-7.042-14.797-4.628-3.5364-13.557-4.458-18.314-1.8882zm369.99 0.1128c-5.53 2.8261-8.7 7.8857-9.19 14.697-0.82 11.399 5.41 18.656 16.55 19.258 8.04 0.4336 13.23-2.3309 16.68-8.8748 4.39-8.3501 2.5-16.972-5.06-23.022-4.83-3.8675-13.58-4.8167-18.98-2.0583zm-415.02 9.9563c-8.448 3.8419-12.573 13.976-9.244 22.711 5.159 13.535 22.864 16.089 31.469 4.5399 4.959-6.6536 2.848-20.03-3.983-25.251-4.285-3.2761-13.271-4.2612-18.242-1.9999zm460.36 0.6724c-6.25 3.1213-9.21 8.2404-9.16 15.819 0.08 11.484 5.47 17.204 16.81 17.826 5.68 0.3106 7.19 0.0071 10.16-2.0296 5.6-3.8491 7.58-7.3158 8.08-14.13 0.37-5.2257 0.05-6.794-2.22-10.679-4.74-8.0999-15.11-11.081-23.67-6.8053zm-503.2 11.32c-3.47 1.0415-8.378 5.4615-10.427 9.3915-2.306 4.4231-1.857 13.227 0.883 17.301 3.742 5.565 8.38 8.1204 14.737 8.1204 10.273 0 16.976-5.1088 18.299-13.945 2.137-14.283-9.872-24.952-23.492-20.868zm546.6 2.2921c-5.58 3.765-8.11 8.392-8.11 14.836 0 7.1651 2.18 11.657 7.38 15.274 5.76 3.9946 14.99 4.1566 20.59 0.3608 11.1-7.5248 9.91-26.395-1.98-31.373-5.42-2.2674-13.81-1.8441-17.88 0.9021zm-316.02 7.0082c-19.94 1.1286-45.336 3.5354-69.9 6.6239-95.874 12.054-192.02 41.859-282.52 87.579-34.521 17.441-58.098 31.202-92.068 53.74-77.631 51.505-139.03 107.11-202.11 183.04-2.571 3.096-9.265 11.624-14.877 18.953-97.992 127.98-159.91 278.5-179.85 437.18-5.3574 42.627-8.2422 92.243-7.2418 124.54 3.6439 117.61 23.07 213.38 64.481 317.88 34.531 87.13 88.249 175.8 151.46 249.99 28.974 34.01 78.531 82.43 115 112.37 93.308 76.59 200.37 133.63 318.15 169.51 32.138 9.79 66.409 17.54 111.2 25.17 87.154 14.84 191.33 14.8 279.95-0.1 41.27-6.93 77.55-15.2 110.11-25.09 108.48-32.94 204.94-82.5 294.98-151.56 53.02-40.67 111.45-97.59 152.68-148.75 55.41-68.75 96.56-137.12 130.98-217.66 25.97-60.76 44.07-122.28 57.52-195.43 2.75-14.96 4.78-30.5 7.23-55.36 7.54-76.522 6.67-136.17-3.09-214.04-2.83-22.596-5.16-35.432-12.25-67.51-16.97-76.786-39.91-142.41-73.59-210.47-53.2-107.53-121.23-196.21-213.81-278.75-32.82-29.261-63.36-52.244-110.48-83.138-34.87-22.866-86.14-50.066-128.05-67.939-98.98-42.209-196.99-64.891-306.24-70.871-22.197-1.2157-75.623-1.1747-97.665 0.0728zm-276.72 6.6259c-6.697 3.4995-9.721 8.4177-9.721 15.811 0 16.027 19.54 24.433 30.555 13.145 8.495-8.7067 6.233-23.876-4.31-28.889-4.464-2.1229-12.527-2.1557-16.524-0.0677zm638.34 0.3229c-5.7 2.6375-8.53 6.0929-9.58 11.691-1.36 7.3127 0.06 12.896 4.28 16.769 10.52 9.6627 26.8 5.4057 30.39-7.9472 1.6-5.934 0.36-11.687-3.44-16.023-5.67-6.4762-13.74-8.1481-21.65-4.4897zm-349.35 14.518c-79.322 2.5831-162.81 18.262-244.49 45.914-83.819 28.375-165.45 71.511-239.05 126.32-88.239 65.714-161.73 145.54-220.29 239.26-63.949 102.36-102.92 206.34-123.69 330.07-11.265 67.08-13.647 136.68-7.2612 212.19 2.581 30.51 4.0674 41.57 9.8565 73.29 5.5811 30.58 8.3831 43.47 14.376 66.12 12.542 47.4 20.131 70.45 36.635 111.27 8.836 21.85 33.528 73.63 43.594 91.42 28.863 51 49.423 81.54 85.72 127.33 60.482 76.3 144.56 149.98 231.32 202.71 75.131 45.66 153.46 78.91 237.33 100.74 31.16 8.1 44.123 10.84 75.189 15.89 64.107 10.41 112.96 13.7 169.91 11.45 49.181-1.95 103.2-8.6 147.72-18.19 38.37-8.27 88.84-23.34 126.85-37.89 85.67-32.77 167.91-79.79 238.32-136.23 72.34-57.99 137.37-128.63 186.89-203.02 52.18-78.37 92.26-166.51 116.42-256.01 11.96-44.3 22.58-102.18 26.57-144.78 5.31-56.754 4.55-124.93-2.01-180.31-7.43-62.587-25.13-137.89-45.89-195.17-33.01-91.062-81.31-177.58-141.19-252.88-39.43-49.584-89.73-99.945-138.83-139-46.76-37.186-90.37-65.612-142.58-92.928-77.58-40.591-159.09-68.472-247.82-84.77-41.6-7.6417-77.62-11.365-124.55-12.874-32.333-1.0404-35.111-1.0373-69.052 0.0677zm-330.28 1.0424c-10.033 4.0264-14.912 14.539-11.046 23.793 1.926 4.611 9.023 10.734 13.394 11.556 13.558 2.548 24.651-9.657 21.027-23.138-2.733-10.172-13.909-16.01-23.375-12.212zm724.8 0.365c-7.8 2.8537-11.92 8.7426-11.92 17.039 0 7.172 2.47 11.917 8.05 15.464 8.74 5.552 20.19 2.879 25.33-5.913 5.18-8.86 1.79-21.117-6.98-25.26-5.23-2.4673-10.14-2.9183-14.48-1.3305zm-767.4 19.467c-6.721 3.006-10.742 9.623-10.742 17.679 0 9.961 5.725 15.909 15.94 16.563 10.376 0.665 16.869-3.838 18.955-13.143 3.148-14.038-11.443-26.784-24.153-21.099zm808.04 0.452c-2.31 1.085-5.53 3.717-7.16 5.848-2.58 3.387-2.95 4.748-2.95 10.8 0 5.393 0.47 7.548 2.11 9.754 6.81 9.142 18.78 10.795 27.14 3.746 15.18-12.802-1.17-38.564-19.14-30.148zm-399.75 3.314c-0.252 0.794-0.717 23.866-1.035 51.27-0.579 49.825-0.579 49.825 8.733 50.529 5.122 0.388 9.488 0.53 9.701 0.316 0.467-0.468 2.395-58.598 2.417-72.899 0.016-10.156 0.016-10.156 16.777-9.493 24.076 0.951 77.856 5.976 79.286 7.406 0.65 0.653-1.49 18.804-2.32 19.632-0.37 0.369-6.76 0.089-14.21-0.625-30.12-2.887-50.3-4.105-50.94-3.074-0.54 0.884-2.18 18.471-4.7 50.488-0.736 9.389-0.39 9.847 7.37 9.871 17.42 0.052 71.83 7.314 104.3 13.919 6.75 1.374 12.56 2.497 12.91 2.497s0.88-1.96 1.19-4.356c1.29-10.088 6.21-40.132 11.03-67.287 2.84-16.007 4.79-29.445 4.34-29.862-0.46-0.419-4.66-1.452-9.35-2.297-6.2-1.12-8.62-1.222-8.9-0.377-0.46 1.391-3.89 19.729-10.16 54.367-2.54 14.041-4.74 25.645-4.89 25.785-0.14 0.14-9.47-1.282-20.72-3.162-11.26-1.88-29.44-4.414-40.41-5.631s-21.5-2.432-23.39-2.702c-3.44-0.491-3.44-0.491-2.75-9.391 0.99-12.661 0.79-12.308 6.47-11.794 11.8 1.068 41.2 4.714 48.73 6.043 4.55 0.803 9.01 1.46 9.9 1.461 1.74 1e-3 2.83-6.138 7.12-39.976 1.11-8.739 2.24-16.904 2.53-18.147 0.6-2.672 3.02-2.157-30.2-6.439-33.5-4.319-54.81-6.065-83.596-6.845-20.839-0.565-24.849-0.443-25.233 0.773zm-54.388 1.018c-0.789 1.278-0.167 17.819 2.134 56.743 0.798 13.497 1.252 24.74 1.009 24.983s-6.561 1.079-14.041 1.859c-16.064 1.674-31.256 3.675-52.986 6.979-8.721 1.325-16.159 2.228-16.529 2.005-0.787-0.474-4.378-19.77-3.79-20.36 0.576-0.576 44.145-7.531 52.182-8.328 3.741-0.372 7.404-1.049 8.14-1.505 1.09-0.675 0.804-5.764-1.529-27.29-3.779-34.852-3.1-32.097-7.92-32.097-8.569 0-53.738 7.041-79.194 12.345-18.492 3.853-47.809 11.125-48.794 12.103-0.419 0.417 1.764 11.577 4.851 24.8 9.7 41.552 17.262 73.229 17.587 73.669 0.415 0.562 16.969-3.122 17.996-4.004 0.439-0.377-0.161-4.8-1.334-9.828-4.443-19.039-15.261-69.51-14.964-69.809 0.873-0.873 26.068-6.896 43.632-10.429 20.07-4.038 46.621-8.099 47.459-7.26 0.701 0.702 2.658 19.626 2.12 20.497-0.263 0.426-2.894 1.093-5.848 1.48-16.032 2.104-54.538 10.116-56.273 11.71-0.428 0.393-0.293 3.223 0.302 6.29 0.593 3.067 2.877 15.664 5.077 27.994 2.199 12.329 4.268 22.687 4.596 23.017 0.33 0.33 11.053-1.134 23.833-3.254 26.949-4.469 58.13-8.333 81.198-10.062 15.326-1.148 16.202-1.328 16.202-3.34 0-1.17-0.938-15.274-2.086-31.341-1.146-16.068-2.643-37.978-3.324-48.69-1.239-19.476-1.239-19.476-10.106-19.771-5.909-0.196-9.111 0.101-9.6 0.894zm-394.9 16.391c-7.636 2.222-13.444 12.08-11.695 19.852 3.392 15.066 19.698 20.484 30.145 10.015 13.462-13.49 0.025-35.242-18.45-29.867zm891.09 0.327c-1.7 0.741-4.56 3.023-6.36 5.071-7.57 8.642-6.18 19.637 3.42 26.969 3.05 2.333 4.79 2.859 9.55 2.887 13.64 0.079 22.22-13.199 16.54-25.593-2.23-4.877-4.51-7.062-9.58-9.186-4.56-1.908-9.42-1.961-13.57-0.148zm-221.35 16.766c-1.1 3.806-5.29 19.373-9.31 34.595-4.01 15.222-9.16 34.267-11.46 42.321-2.28 8.055-3.96 14.849-3.71 15.097s4.53 1.635 9.51 3.082c9.1 2.641 10.7 2.477 10.75-1.107 0.03-2.281 19.63-74.813 20.44-75.639 1.74-1.783 87.17 28.802 93.59 33.511 1.52 1.113 1.32 2.075-2.15 10.284-2.1 4.981-4.34 9.256-4.97 9.5-0.64 0.242-7.57-2.295-15.41-5.639-15.05-6.425-49.39-19.096-50.02-18.459-0.61 0.624-18.96 55.553-18.96 56.778 0 0.625 2.65 1.956 5.88 2.956 18.96 5.861 68.22 26.931 98.5 42.135 13.24 6.653 13.24 6.653 16.21 0.244 6.83-14.758 20.13-41.657 30.73-62.157 6.24-12.057 11.34-22.346 11.34-22.866 0-1.003-14.61-8.002-16.7-8.002-0.68 0-4.56 6.572-8.62 14.607-20.37 40.303-28.94 56.617-29.65 56.46-0.43-0.095-8.61-3.743-18.18-8.107-9.56-4.364-27.88-12.19-40.71-17.39-12.83-5.201-23.57-9.697-23.86-9.992-0.3-0.295 0.73-4.771 2.28-9.948 2.8-9.342 2.84-9.407 5.74-8.826 4.82 0.965 32 11.706 47.64 18.827 8.04 3.66 14.81 6.467 15.04 6.239 0.22-0.228 3.12-6.86 6.44-14.736 3.31-7.877 8.46-19.959 11.43-26.849 2.97-6.892 5.16-13.157 4.86-13.925-0.58-1.514-22.97-11.752-44.16-20.191-21.5-8.562-85.29-29.722-89.6-29.722-0.49 0-1.8 3.113-2.91 6.919zm-482.45 6.628c-3.376 1.16-6.274 2.221-6.441 2.357-0.167 0.137 1.28 5.494 3.213 11.904 1.934 6.411 7.249 24.006 11.812 39.101 4.562 15.095 8.295 27.618 8.295 27.829s-3.567 1.661-7.928 3.225c-12.309 4.409-44.576 17.556-56.884 23.174-6.108 2.788-11.234 4.925-11.389 4.75-0.939-1.052-8.707-17.384-8.707-18.305 0-1.417 19.089-10.534 38.554-18.412 8.232-3.333 15.354-6.446 15.826-6.918 0.871-0.873-18.862-56.626-20.041-56.626-1.522 0-37.875 14.902-50.707 20.786-30.231 13.864-68.27 33.691-69.992 36.484-0.25 0.404 3.693 8.326 8.76 17.604 5.069 9.277 15.686 28.861 23.595 43.519 7.907 14.658 14.747 27.058 15.197 27.556 1.03 1.137 16.292-6.61 16.298-8.273 2e-3 -0.67-5.582-11.741-12.41-24.601-21.969-41.381-24.413-46.157-24.413-47.714 0-1.888 40.292-22.074 64.839-32.484 9.497-4.027 17.394-7.191 17.547-7.03 1.314 1.383 6.708 19.55 5.995 20.192-0.503 0.453-8.511 4.175-17.795 8.272-24.72 10.91-36.828 17.183-36.828 19.08 0 2.664 24.782 52.69 26.103 52.69 0.67 0 7.613-3.045 15.428-6.765 23.738-11.303 52.629-23.009 80.716-32.704 6.189-2.136 11.633-4.22 12.097-4.63 0.464-0.411-2.465-11.067-6.509-23.682-25.726-80.249-23.025-72.674-25.877-72.57-1.219 0.044-4.978 1.03-8.354 2.191zm-227.24-0.185c-3.611 1.108-9.319 6.451-10.709 10.024-0.508 1.305-0.924 4.812-0.924 7.793 0 14.529 16.69 22.452 28.917 13.728 3.741-2.669 6.836-9.24 6.865-14.578 0.029-5.107-3.94-12.023-8.53-14.865-4.084-2.529-11.134-3.477-15.619-2.102zm972.12 0.434c-12.64 4.515-16.28 20.954-6.63 29.975 12 11.234 30.51 3.407 30.51-12.905 0-6.021-1.52-9.579-5.86-13.717-4.92-4.685-11.08-5.831-18.02-3.353zm-1012.9 25.559c-4.34 1.895-9.472 8.104-10.284 12.445-2.358 12.593 7.835 24.278 19.749 22.642 5.296-0.728 10.715-4.384 13.654-9.214 2.33-3.827 2.591-11.545 0.555-16.315-3.845-9.004-14.806-13.429-23.674-9.558zm1050.6 0.186c-4.39 2.292-6.6 4.515-8.81 8.851-7.21 14.157 7.33 30.607 22.07 24.967 10.61-4.06 15.25-16.002 10-25.719-4.37-8.092-15.72-12.041-23.26-8.099zm-1090.2 28.082c-6.298 3.43-8.521 7.584-8.521 15.918 0 5.877 0.433 7.782 2.387 10.53 6.878 9.663 23.33 9.903 30.315 0.445 3.058-4.142 3.404-14.073 0.676-19.429-3.137-6.161-7.478-8.839-14.92-9.205-4.663-0.229-7.105 0.2-9.937 1.741zm1126.9-0.053c-8.77 5.353-11.89 15.85-7.35 24.676 1.3 2.532 3.98 5.685 5.95 7.006 4.96 3.328 16.18 2.933 21.35-0.753 4-2.857 7.25-9.322 7.25-14.445 0-7.064-5.26-14.975-11.53-17.357-4.58-1.737-12.09-1.318-15.67 0.873zm-124.92 24.362c-1.11 1.587-11.46 18.337-22.99 37.224-11.54 18.886-22.87 37.328-25.18 40.981-4.19 6.643-4.19 6.643 1.14 9.956 7.73 4.802 11.85 6.953 12.29 6.42 0.21-0.257 2.84-4.618 5.85-9.692 6.51-10.998 35.62-57.896 37.03-59.668 0.73-0.92 4.18 0.906 13.33 7.046 22.16 14.878 58.96 41.916 66.14 48.598 1.22 1.13 0.52 2.543-4.58 9.208-3.31 4.331-6.57 8.087-7.25 8.348s-5.75-3.173-11.27-7.629c-18.52-14.94-43.4-33.067-45.39-33.067-0.9 0-33.73 48.759-33.67 50.003 0.02 0.405 5.66 4.505 12.53 9.11 22.93 15.364 58.19 43.692 76.27 61.268 9.55 9.287 9.55 9.287 18.54-0.451 34.83-37.743 59.37-65.101 59.37-66.195 0-1.254-11.97-12.733-13.28-12.733-0.36 0-8.9 8.88-18.98 19.732-10.07 10.852-22.78 24.32-28.23 29.929-9.91 10.196-9.91 10.196-16.61 3.921-7.99-7.491-26.4-22.388-46.41-37.562-8.01-6.072-14.85-11.507-15.2-12.075-0.93-1.513 9.37-17.807 11.16-17.659 1.63 0.135 18.95 13.419 39.92 30.62 7.22 5.924 13.66 10.735 14.32 10.693 1.73-0.111 37.51-44.697 37.5-46.735 0-2.576-48.25-39.643-74.67-57.37-18.74-12.575-36.16-23.757-38.28-24.572-0.77-0.298-2.28 0.743-3.4 2.351zm-1036.1 4.486c-4.162 1.213-9.296 6.407-10.777 10.905-1.542 4.682-0.552 13.336 1.902 16.63 4.481 6.014 11.184 8.616 18.663 7.246 8.614-1.579 14.284-8.37 14.284-17.109 0-8.415-3.669-13.9-11.49-17.174-4.153-1.739-7.825-1.884-12.582-0.498zm1201.9-0.156c-7.41 1.873-13.67 9.897-13.67 17.518 0 8.188 7.1 16.444 15.44 17.953 9.05 1.639 19.41-5.119 20.83-13.6 1.52-8.958-1.67-17.096-7.82-20.024-4.46-2.117-10.65-2.89-14.78-1.847zm-644.34 6.332c-19.855 1.455-48.348 5.149-79.282 10.276-46.16 7.652-103.98 24.741-149.02 44.047-9.099 3.899-16.796 7.09-17.106 7.09-1.34 0-36.24 17.501-50.748 25.447-109.57 60.011-203.41 149.13-268.32 254.82-30.795 50.14-53.061 98.194-71.183 153.62-18.997 58.109-26.798 95.774-34.437 166.28-5.353 49.392-3.421 106.53 5.735 169.65 14.725 101.51 54.474 203.4 112.97 289.59 22.971 33.84 32.963 46.9 60.786 79.43 51.405 60.09 127.04 120.3 201.62 160.49 104.21 56.16 220.11 85.52 337.49 85.52 102.04-0.01 191.86-18.81 287.56-60.18 12.58-5.44 52.14-25.15 63.94-31.86 65.05-36.97 128.86-87.82 178.4-142.19 20.27-22.23 33.01-37.58 49.35-59.45 56.17-75.16 95.85-156.4 120.16-245.98 3.05-11.26 6.71-25.98 8.13-32.7 5.37-25.5 11.75-69.26 14.97-102.64 1.65-17.13 1.66-74.672 0.01-92.764-6.21-68.1-18.26-128.39-36.67-183.42-28.46-85.104-67.65-157.26-122.49-225.57-12.66-15.768-23.75-28.158-45.41-50.74-28.29-29.488-49.84-48.603-83.38-73.988-61.05-46.188-122.4-79.239-196.32-105.75-22.84-8.192-32.22-10.951-68.84-20.265-29.23-7.432-86.93-16.37-121.42-18.809-17.174-1.213-79.673-1.179-96.48 0.053zm-410.21 4.058c-3.369 2.192-6.286 4.465-6.48 5.049-0.363 1.092 12.421 21.817 31.317 50.769 5.887 9.02 10.908 16.932 11.156 17.579 0.249 0.649-2.686 3.385-6.522 6.081-21.194 14.89-50.489 37.029-59.772 45.17-1.463 1.282-2.413 0.571-8.44-6.328-3.736-4.275-6.793-8.17-6.793-8.657 0-0.993 31.258-26.442 42.71-34.775 4.08-2.968 7.417-5.644 7.417-5.945 0-0.303-2.218-3.38-4.928-6.837-2.711-3.459-10.375-14.13-17.034-23.714-6.657-9.584-12.251-17.603-12.43-17.82-0.475-0.576-4.564 2.199-17.781 12.073-27.29 20.387-52.973 42.082-75.029 63.379-11.092 10.711-11.092 10.711-9.15 12.929 15.239 17.406 54.7 60.109 63.022 68.202 4.608 4.48 4.608 4.48 10.945-1.693 4.709-4.589 6.11-6.573 5.461-7.729-0.99-1.759-30.963-34.311-44.59-48.426-4.933-5.109-8.969-9.731-8.969-10.272 0-1.408 16.055-16.959 28.644-27.746 13.141-11.259 41.385-33.159 42.764-33.159 0.553 0 3.578 3.768 6.723 8.374 4.259 6.238 5.44 8.708 4.63 9.686-0.598 0.722-8.07 6.601-16.605 13.064-8.535 6.464-19.31 15.285-23.945 19.605-8.428 7.854-8.428 7.854-4.604 12.737 12.472 15.929 32.935 40.445 34.156 40.92 0.486 0.189 6.058-3.995 12.384-9.298 23.799-19.951 44.415-35.29 70.631-52.548 7.707-5.074 14.014-9.534 14.014-9.911 1e-3 -0.783-10.128-16.84-29.311-46.467-20.89-32.264-25.135-38.445-26.339-38.358-0.619 0.044-3.882 1.873-7.252 4.066zm431.18 18.487c-31.315 1.39-67.97 5.307-95.432 10.2-93.226 16.611-185.44 54.125-264.77 107.71-23.749 16.041-57.812 42.691-77.635 60.741-22.42 20.413-54.191 53.633-73.66 77.018-46.394 55.726-88.158 128.68-113.84 198.86-12.902 35.258-20.919 62.093-27.761 92.93-12.888 58.081-17.733 107.38-16.657 169.48 0.9 51.924 4.137 79.004 16.178 135.3 8.149 38.11 16.2 64.23 31.267 101.47 19.378 47.9 37.628 82.4 69.494 131.4 12.392 19.05 38.513 53.94 50.17 67 2.745 3.08 7.745 8.83 11.11 12.77 14.898 17.47 51.659 53.33 75.906 74.05 14.081 12.03 52.558 40.25 72.419 53.11 23.02 14.91 62.803 36.45 89 48.19 31.748 14.22 75.927 29.96 108.95 38.82 12.095 3.24 49.762 11.23 65.471 13.88 33.847 5.72 66.885 8.22 108.44 8.22 51.985 0 87.005-3.41 132.98-12.94 117.33-24.3 220.3-74.07 311.5-150.56 60.38-50.64 116-115.97 155.77-182.96 59.82-100.77 92.24-205.67 97.87-316.74 0.3-5.92 0.8-15.607 1.1-21.526 0.66-12.759-0.97-52.894-3.15-77.392-6.77-76.33-28.69-159.16-60.48-228.58-51.02-111.43-122.22-199-223.84-275.34-72.22-54.248-161.01-95.52-251.26-116.79-47.7-11.241-81.11-15.862-132.88-18.374-23.124-1.122-29.912-1.116-56.264 0.054zm-617.37 4.606c-6.978 3.646-9.721 8.403-9.721 16.855 0 6.069 1.752 9.964 6.148 13.671 15.9 13.405 38.855-6.884 27.273-24.106-4.818-7.163-16.315-10.278-23.7-6.42zm1274 0.392c-7.53 4.115-11.28 12.412-9.05 19.991 4.34 14.709 20.38 19.329 30.81 8.875 8.13-8.146 7.04-21.061-2.36-28.098-4-2.992-14.58-3.41-19.4-0.768zm-1306.4 32.841c-5.25 1.584-10.049 5.331-12.174 9.505-2.892 5.681-2.372 15.252 1.096 20.132 2.454 3.454 11.123 8.271 14.9 8.279 7.743 0.016 15.696-5.522 18.502-12.885 1.522-3.996 1.587-5.353 0.49-10.267-1.685-7.544-5.826-12.213-12.625-14.236-5.762-1.715-6.183-1.736-10.189-0.528zm1342.9 1.447c-9.6 4.189-13.42 18.37-7.52 27.928 7.2 11.683 26.78 10.641 33.19-1.765 1.75-3.394 1.96-11.873 0.41-16.007-1.48-3.927-5.9-8.48-9.88-10.187-4.13-1.771-12.1-1.756-16.2 0.031zm-1381 37.856c-8.351 3.819-13.144 13.504-10.88 21.985 3.574 13.39 16.426 19.017 27.963 12.241 11.357-6.668 11.959-23.956 1.126-32.236-4.271-3.264-13.274-4.248-18.209-1.99zm1415 0.777c-2.22 1.173-5.22 4.129-6.98 6.874-2.74 4.278-3.04 5.517-2.71 11.1 0.63 10.652 7.38 17.76 17.68 18.616 10.52 0.874 19.23-6.327 20.67-17.094 1.03-7.668-4.5-17.254-11.67-20.26-4.77-1.996-12.42-1.651-16.99 0.764zm-117.33 51.286c-14.35 13.545-30.91 29.131-36.82 34.634-12 11.192-11.85 9.313-1.66 21.04 3.52 4.042 3.52 4.042 8.47 0.01 2.72-2.218 10.03-8.879 16.25-14.804 25.84-24.645 40.24-37.933 41.04-37.876 0.47 0.034 4.77 4.661 9.55 10.282s11.16 13.089 14.18 16.595c9.16 10.647 23.92 29.366 31.69 40.203 8.36 11.648 8.75 9.84-4.06 18.89-5.93 4.186-5.93 4.186-15.33-8.377-14.35-19.179-34.11-42.802-35.8-42.802-0.51 0-4.26 2.889-8.33 6.421-4.08 3.533-13.43 11.358-20.78 17.389-19.59 16.081-18.64 13.266-8.44 25.107 18.52 21.482 41.34 52.561 59.42 80.93 4.07 6.379 7.79 11.601 8.27 11.604 1.06 6e-3 12.81-7.126 49.73-30.18 15.49-9.677 30.12-18.691 32.51-20.032 2.4-1.341 4.35-2.778 4.35-3.194 0-1.714-10.12-16.785-11.12-16.561-1.15 0.26-24.55 14.793-46.68 28.991-7.31 4.692-15.61 9.818-18.44 11.388-5.15 2.856-5.15 2.856-13.3-9.636-10.11-15.495-22.13-32.079-34.87-48.097-5.36-6.751-9.54-12.819-9.29-13.485 0.26-0.667 3.94-4.094 8.19-7.617 7.73-6.406 7.73-6.406 20.22 9.753 6.87 8.887 16.16 21.354 20.64 27.702 4.49 6.349 8.45 11.724 8.81 11.945 0.36 0.22 6.64-3.962 13.95-9.293 7.32-5.332 18-12.906 23.74-16.832 5.74-3.925 10.68-7.53 10.97-8.009 1.27-2.065-32.79-47.772-54.71-73.408-13.13-15.349-34.03-37.439-35.36-37.362-0.5 0.029-12.64 11.135-26.99 24.681zm-1207.1-8.822c-3.41 3.26-6.2 6.375-6.2 6.925 0 1.173 16.975 17.496 41.687 40.084 9.706 8.872 17.646 16.553 17.646 17.068 0 0.516-2.876 4.236-6.394 8.267-9.936 11.392-20.484 24.623-33.257 41.719-6.444 8.624-12.174 15.527-12.735 15.341-1.538-0.514-17.1-11.471-17.129-12.059-0.039-0.829 18.625-26.227 28.072-38.2 4.79-6.069 8.708-11.38 8.708-11.801 0-1.166-44.045-38.153-45.434-38.153-0.685 0-27.917 34.812-38.088 48.69-10.183 13.894-38.214 56.908-38.214 58.641 0 0.569 6.56 5.264 14.578 10.432 8.017 5.17 27.167 17.72 42.555 27.891 15.389 10.17 28.064 18.345 28.167 18.166 0.103-0.178 2.359-3.664 5.012-7.744 2.654-4.081 4.826-7.787 4.826-8.236s-1.496-1.689-3.325-2.756c-1.829-1.066-12.762-8.147-24.296-15.735s-24.931-16.257-29.771-19.263c-11.277-7.007-11.809-7.647-9.445-11.357 12.868-20.195 44.332-63.755 49.631-68.71 2.427-2.27 2.427-2.27 9.56 3.407 3.924 3.122 7.559 6.091 8.079 6.599 0.57 0.556-1.076 3.266-4.159 6.843-8.836 10.254-32.079 43.535-32.079 45.934 0 0.669 7.941 6.742 17.647 13.497s20.672 14.409 24.372 17.01c6.725 4.727 6.725 4.727 13.912-5.732 10.514-15.301 34.432-45.781 51.184-65.228 8.042-9.334 14.621-17.511 14.621-18.171 0-1.134-25.059-24.97-54.676-52.007-7.344-6.705-14.591-13.337-16.104-14.738-2.75-2.549-2.75-2.549-8.951 3.376zm-123.33-1.904c-4.559 2.414-6.639 4.509-8.916 8.979-5.384 10.57 1.937 24.387 14.136 26.68 7.109 1.337 15.971-3.177 19.441-9.903 1.996-3.865 2.029-13.074 0.06-16.866-4.561-8.788-16.681-13.146-24.721-8.89zm1481.3 0.231c-7.52 3.48-10.74 8.767-10.74 17.656 0 17.121 20.56 24.775 32.36 12.048 14.14-15.241-2.74-38.434-21.62-29.704zm-1509.9 39.897c-8.697 5.581-12.3 15.843-8.275 23.563 8.518 16.336 33.098 12.648 35.113-5.267 0.667-5.933-2.391-12.806-7.402-16.637-5.057-3.863-14.715-4.689-19.436-1.659zm1536.9 0.269c-5.46 3.263-9.11 9.492-9.11 15.572 0 5.549 1.03 8.085 4.99 12.375 3.83 4.144 7.52 5.803 12.91 5.803 7.64 0 15.35-5.016 17.84-11.599 2.63-6.952-0.21-15.889-6.59-20.768-5.22-3.99-14.59-4.635-20.04-1.383zm-1561.6 38.933c-7.534 3.738-11.738 12.426-10.14 20.96 0.811 4.333 6.434 10.993 10.816 12.813 4.321 1.792 14.275 0.891 17.577-1.592 5.407-4.066 7.478-8.454 7.478-15.843 0-5.934-0.381-7.319-2.95-10.694-5.523-7.256-14.864-9.57-22.781-5.644zm1589.4-0.967c-11.54 4.615-15.54 17.656-8.53 27.821 3.82 5.555 8.21 7.94 14.61 7.94 10.5 0 17.42-6.038 18.23-15.915 0.58-7.008-0.13-9.771-3.58-13.878-4.98-5.929-14.19-8.582-20.73-5.968zm-1612.8 41.057c-13.445 7.451-14.061 24.831-1.16 32.713 7.275 4.446 20.941 1.029 24.654-6.165 4.92-9.534 1.398-21.524-7.708-26.244-3.39-1.755-12.838-1.938-15.786-0.304zm1633.8 1.228c-11.17 6.773-11.93 22.801-1.44 30.413 14 10.162 32.4-1.935 28.39-18.67-1.43-5.946-5.18-10.813-9.85-12.769-5.25-2.198-12.51-1.762-17.1 1.026zm24.43 40.095c-5.64 2.035-11.34 8.364-12.22 13.577-1.33 7.889 2.93 16.78 9.74 20.307 1.59 0.825 5.51 1.501 8.71 1.501 9.55 0 15.94-5.373 17.72-14.898 1.09-5.845-0.07-10.579-3.65-14.834-4.97-5.927-13.19-8.214-20.3-5.653zm-1680.2 1.409c-1.946 1.047-4.931 3.626-6.633 5.733-2.642 3.27-3.095 4.694-3.095 9.718 0 6.782 3.025 12.17 9.168 16.335 3.11 2.109 4.507 2.371 10.735 2.018 6.498-0.368 7.49-0.727 10.744-3.887 11.875-11.532 3.976-31.818-12.388-31.818-2.909 0-6.469 0.793-8.531 1.901zm1582 9.763c-4.5 2.45-13.02 7.097-18.93 10.328-5.91 3.23-18 9.781-26.88 14.558-24.42 13.142-32.92 18.239-33.25 19.935-0.34 1.781 6.89 15.268 8.19 15.268 0.47 0 10.17-4.902 21.54-10.892 43.97-23.158 49.54-26.01 50.76-26.01 2.5 0 38.88 79.606 39.32 86.017 0.15 2.175-0.83 2.887-8.02 5.859-4.5 1.861-8.79 3.284-9.53 3.163-0.74-0.122-3.59-5.68-6.34-12.352-8.08-19.594-21.87-49.078-23.21-49.594-0.68-0.262-6.21 1.825-12.28 4.637-16.34 7.571-38.38 18.064-40.61 19.335-1.84 1.049-1.43 2.29 7.04 21.483 12.16 27.561 16.73 39.497 26.62 69.572 6.11 18.59 8.89 25.718 10.12 25.961 0.93 0.185 7.55-1.355 14.71-3.42 27.29-7.874 82.61-24.362 83.04-24.754 0.87-0.779-5.23-17.906-6.55-18.415-0.73-0.281-18.36 4.591-39.17 10.828-20.81 6.235-38.32 11.338-38.91 11.338s-3.02-5.881-5.39-13.07c-4.88-14.767-15.89-42.911-22.95-58.648-2.59-5.789-4.55-10.692-4.35-10.895 1.51-1.511 18.51-8.516 19.37-7.983 0.6 0.372 2.62 3.989 4.48 8.039 4.2 9.089 19.5 47.384 20.44 51.134 0.37 1.506 1.06 2.971 1.51 3.253 0.76 0.47 54.85-20.328 56.08-21.564 1.14-1.142-12.6-36.493-23.91-61.508-13.86-30.647-32.13-66.119-34.04-66.074-0.39 9e-3 -4.4 2.021-8.9 4.471zm-1484.8 6.529c-2.285 4.368-4.154 8.208-4.154 8.531 0 0.324 4.258 2.825 9.463 5.558 5.205 2.731 15.447 8.269 22.762 12.304 7.314 4.035 19.283 10.489 26.597 14.34 7.315 3.852 13.442 7.112 13.616 7.244 0.175 0.131-2.873 6.631-6.773 14.443-7.659 15.344-19.521 42.172-24.296 54.949-1.632 4.37-3.45 7.945-4.041 7.945-1.003 0-17.103-6.567-19.039-7.765-0.483-0.3-0.135-2.25 0.777-4.334 0.91-2.085 3.601-8.633 5.978-14.553 2.378-5.919 6.956-16.529 10.173-23.576 3.218-7.047 6.099-13.392 6.401-14.1 0.652-1.531-47.995-25.853-52.361-26.18-2.631-0.197-3.14 0.553-8.894 13.116-10.451 22.82-18.192 41.343-25.06 59.966-7.713 20.913-16.787 50.425-15.818 51.447 0.369 0.388 8.266 3.078 17.55 5.976 9.284 2.899 31.121 9.852 48.529 15.451 17.406 5.598 31.946 9.829 32.311 9.398 1.416-1.67 5.176-16.994 4.368-17.804-0.82-0.821-36.001-12.481-64.492-21.374-7.455-2.327-13.555-4.634-13.555-5.128 0-1.516 13.312-39.934 17.417-50.267 4.081-10.27 14.864-34.738 15.661-35.536 0.388-0.389 16.677 7.288 17.959 8.464 0.219 0.201-4.462 12.717-10.404 27.813-5.94 15.096-11.096 28.628-11.456 30.069-0.627 2.502-0.222 2.791 8.868 6.336 12.734 4.965 44.969 16.938 46.737 17.359 0.977 0.233 3.5-5.162 8.233-17.603 9.747-25.621 16.121-40.287 29.364-67.559 6.407-13.196 11.531-24.078 11.386-24.181-0.506-0.357-27.939-15.641-38.116-21.236-22.024-12.109-50.548-27.456-51.029-27.456-0.28 0-2.378 3.575-4.662 7.943zm-111.57 23.802c-5.07 0.958-7.6908 2.596-10.898 6.808-5.0945 6.693-4.4009 17.541 1.556 24.336 4.8377 5.519 16.885 6.848 23.213 2.561 3.669-2.487 8.639-10.927 8.628-14.654-0.032-12.188-10.758-21.27-22.499-19.051zm1710.9 1.97c-9.54 5.829-12.27 18.165-5.88 26.56 3.98 5.227 8.2 7.37 14.51 7.374 7.04 5e-3 11.94-2.374 15.26-7.392 5.82-8.814 3.23-21.199-5.46-26.157-5.2-2.964-13.91-3.146-18.43-0.385zm-1731.8 42.566c-6.1727 2.762-10.741 10.136-10.741 17.34 0 4.714 3.8648 11.731 8.0192 14.56 5.1497 3.505 15.651 3.617 20.635 0.218 6.0659-4.137 7.6619-7.282 7.6619-15.1 0-6.28-0.324-7.412-3.1413-10.943-1.7278-2.167-4.72-4.746-6.6494-5.731-4.137-2.115-11.468-2.274-15.784-0.344zm1748.8 0.909c-11.28 5.978-12.21 23.028-1.67 30.857 2.35 1.751 4.37 2.146 10.94 2.146 8 0 8.1-0.032 12.17-4.018 9.48-9.279 7.25-24.084-4.44-29.403-5.69-2.588-11.6-2.442-17 0.418zm-1213.6 7.113c10.075 13.698 24.428 39.932 29.331 53.607 4.216 11.757 7.739 29.736 8.832 45.061 1.366 19.178 1.465 410.6 0.108 432.06-1.144 18.1-4.321 34.73-9.728 50.95-4.155 12.45-8.641 21.15-19.641 38.09-4.162 6.42-7.391 11.84-7.174 12.05 0.217 0.22 40.502 0.28 89.524 0.14 89.128-0.27 89.128-0.27 81.392-12.05-9.351-14.25-15.463-26.63-20.239-41.01-7.653-23.03-7.095-7.08-7.47-213.09-0.292-160.11-0.141-184.75 1.123-183.7 0.804 0.668 4.751 5.923 8.772 11.678 4.021 5.754 12.61 17.612 19.085 26.351 6.476 8.738 18.185 24.652 26.021 35.364s21.273 29.008 29.861 40.658 21.598 29.39 28.912 39.421c12.64 17.333 23.923 32.639 68.54 92.999 10.689 14.46 19.768 26.29 20.175 26.29s4.321-4.9 8.696-10.9c25.975-35.59 34.116-46.68 52.916-72.13 24.75-33.475 49.76-67.426 66.18-89.837 6.55-8.938 18.71-25.476 27.02-36.752 8.31-11.275 22.29-30.35 31.06-42.388 15.94-21.888 15.94-21.888 16.24 158.37 0.2 126.44-0.04 183.26-0.83 190.31-2.59 22.99-11.18 44.77-27.93 70.71-3.19 4.95-5.81 9.22-5.81 9.48s40.05 0.48 89 0.48 89-0.17 89-0.37c0-0.21-3.6-6.32-8-13.59-12.59-20.78-15.1-25.73-19.44-38.4-5.34-15.56-8.42-31.16-9.42-47.58-1.2-19.77-0.24-431.8 1.03-441.8 3.9-30.779 15.26-58.467 36.48-88.923 5.54-7.944 5.54-7.944-63.04-7.944s-68.58 0-73.94 7.399c-2.94 4.069-9.5 13.012-14.56 19.873-5.06 6.862-14.93 20.253-21.94 29.76-18.05 24.52-56.52 76.42-69.71 94.051-4.17 5.577-9.63 12.958-12.13 16.401-4.88 6.698-20.91 28.426-39.43 53.414-30.068 40.583-38.426 51.928-44.363 60.222-3.532 4.933-6.752 8.969-7.156 8.969-0.718 0-4.104-4.48-27.885-36.891-6.407-8.731-22.697-30.693-36.201-48.802-13.503-18.111-35.37-47.591-48.592-65.513-31.942-43.297-45.845-62.093-61.408-83.018-7.127-9.584-19.173-25.959-26.77-36.389-13.811-18.963-13.811-18.964-82.509-19.227s-68.698-0.263-63.982 6.15zm-549.49 36.53c-12.164 5.536-14.952 19.679-5.7052 28.945 11.938 11.962 30.81 4.348 30.81-12.431 0-5.876-1.5468-9.483-5.7911-13.506-5.5119-5.226-12.164-6.263-19.314-3.008zm1778.5 0.313c-11.18 5.777-13.16 19.15-4.24 28.728 3.1 3.333 4.68 4.185 8.56 4.624 12.66 1.43 21.42-5.504 21.55-17.068 0.15-13.676-13.85-22.491-25.87-16.284zm-1787.9 42.844c-11.318 2.656-17.743 15.458-12.715 25.335 2.806 5.51 7.343 9.185 12.398 10.041 15.722 2.662 27.374-11.596 20.505-25.089-2.9114-5.718-7.9118-9.218-15.354-10.747-0.844-0.173-3.0188 0.033-4.8336 0.46zm1802.9 0.489c-7.53 2.69-11.92 9.104-11.92 17.417 0 5.742 1.78 9.467 6.51 13.632 8.62 7.586 23.41 4.511 28.83-5.995 1.87-3.627 1.9-10.256 0.07-14.538-2-4.665-7.6-9.583-12.4-10.888-5.14-1.399-6.24-1.362-11.09 0.372zm-1722.3 40.193c-1.895 6.879-3.485 14.697-3.06 15.046 0.231 0.19 17.913 4.621 39.293 9.846 21.381 5.225 39.248 9.848 39.707 10.272 0.458 0.425-0.789 9.023-2.772 19.106-3.948 20.088-6.96 38.44-8.873 54.09-1.239 10.128-1.239 10.128-8.001 9.489-3.719-0.353-7.913-0.651-9.319-0.664-4.371-0.04-5.032-1.067-4.057-6.3 0.488-2.615 2.299-15.988 4.026-29.718s3.379-25.731 3.672-26.667c0.385-1.237-0.251-1.861-2.323-2.275-34.714-6.949-56.773-11.012-57.241-10.544-0.911 0.913-5.198 25.836-7.963 46.299-3.682 27.252-6.774 60.716-7.007 75.853-0.205 13.326-0.205 13.326 12.583 14.014 7.033 0.379 23.004 1.414 35.492 2.301 12.489 0.887 30.096 1.918 39.129 2.291 16.424 0.678 16.424 0.678 16.424-8.634s0-9.312-5.37-9.882c-2.954-0.313-21.474-1.76-41.155-3.213-19.681-1.455-35.986-2.846-36.231-3.092-1.345-1.349 6.247-73.837 9.152-87.38 1.103-5.144 1.316-5.411 3.883-4.887 1.493 0.304 5.925 1.048 9.847 1.653s7.329 1.297 7.569 1.538c0.241 0.241-0.779 9.326-2.268 20.189-3.179 23.2-5.331 44.633-4.558 45.408 0.3 0.3 10.39 1.466 22.423 2.59 12.031 1.124 25.32 2.462 29.531 2.973 4.212 0.511 7.803 0.782 7.983 0.602s1.434-9.056 2.788-19.725c3.906-30.785 6.398-46.2 11.874-73.453 2.815-14.012 4.868-25.727 4.562-26.035-0.511-0.512-96.35-24.808-97.984-24.839-0.396-8e-3 -1.186 1.678-1.756 3.748zm1635.2 1.842c-11.38 2.879-74.29 18.052-81.08 19.553-1.26 0.279-2.3 1.161-2.3 1.959 0 1.906 2.95 15.942 3.56 16.928 0.26 0.421 5.21-0.26 10.99-1.515 54.43-11.806 70.42-15.135 70.81-14.739 1.31 1.305 11.13 54.362 13.34 72.076 1.41 11.234 2.43 20.559 2.26 20.723-0.16 0.164-5.04 0.678-10.84 1.144-7.13 0.571-10.66 0.5-10.89-0.222-0.19-0.587-0.85-5.45-1.48-10.806-2.68-22.828-8.9-55.353-10.59-55.353-1.13 0-55.38 11.173-57.82 11.909-1.01 0.305-1.21 1.355-0.71 3.739 5.33 25.592 11.7 76.605 12.71 101.72 0.66 16.401 0.66 16.401 16.51 16.057 20.79-0.452 86.99-3.959 87.67-4.645 0.3-0.294 0.2-4.778-0.21-9.966-0.74-9.433-0.74-9.433-16.74-8.746-14.25 0.612-29.93 1.487-57.48 3.209-8.76 0.548-8.76 0.548-10.56-17.668-0.99-10.02-3.18-29.216-4.87-42.659-1.69-13.442-2.84-24.672-2.56-24.956 0.87-0.874 19.13-4.139 19.52-3.491 1.36 2.245 8.76 52.959 8.76 60.023 0 1.929 0.46 3.79 1.01 4.134 0.56 0.343 5.51 0.14 11-0.453 5.49-0.594 18.89-1.74 29.78-2.547 10.89-0.808 19.94-1.619 20.13-1.802 0.44-0.438-4.12-38.647-6.65-55.669-2.64-17.843-6.15-35.73-11.93-60.734-3.8-16.442-5.14-20.738-6.42-20.664-0.89 0.051-7.61 1.608-14.92 3.461zm-1731.2 4.641c-3.8137 2.329-6.9604 6.99-8.4826 12.562-1.9376 7.094 2.3334 16.144 9.3296 19.769 3.8577 1.999 12.58 1.906 16.967-0.181 7.0985-3.376 11.238-13.005 9.1588-21.307-0.8276-3.302-6.1973-9.468-9.9302-11.403-4.2208-2.187-13.02-1.898-17.043 0.56zm1824.7 0.292c-7.61 5.136-10.39 16.36-5.99 24.192 5.7 10.168 19.88 12.494 28.51 4.679 4.45-4.028 6.83-10.67 5.8-16.183-0.85-4.52-5.86-11.436-9.75-13.45-4.75-2.466-14.38-2.07-18.57 0.762zm-1828.8 44.752c-10.307 2.613-15.662 16.413-10.131 26.106 3.6398 6.378 6.9042 8.207 15.381 8.623 6.3834 0.313 7.834 0.042 10.89-2.036 13.791-9.378 8.5584-31.72-7.7593-33.128-2.7355-0.237-6.5062-0.041-8.3803 0.435zm1838.6 0.021c-1.13 0.47-3.29 2.17-4.81 3.78-12.44 13.19-2.38 32.92 15.69 30.777 6.64-0.789 9.3-2.562 12.8-8.539 3.97-6.794 3.86-13.188-0.32-18.973-4.17-5.775-8.64-8.044-15.67-7.963-3.11 0.036-6.57 0.449-7.69 0.918zm-1846.5 46.701c-4.6658 2.527-6.7599 4.713-8.8191 9.207-3.3114 7.225-1.958 14.488 3.7687 20.226 10.995 11.017 29.637 4.514 30.903-10.78 0.5585-6.751-2.0603-12.579-7.5323-16.76-4.6392-3.546-13.565-4.468-18.321-1.893zm1852.6-0.114c-3.69 1.61-8.38 6.911-9.27 10.472-0.35 1.392-0.43 5.013-0.18 8.047 0.82 9.96 7.73 15.915 18.46 15.915 6.76 0 11.41-2.743 14.8-8.743 7.02-12.42-1.95-27.229-16.4-27.093-2.36 0.022-5.69 0.652-7.41 1.402zm-1854.5 45.737c-3.4751 1.056-8.3823 5.481-10.427 9.403-1.9324 3.707-1.8281 11.487 0.2128 15.796 3.6111 7.626 11.232 11.24 20.202 9.58 9.2366-1.707 16.107-11.801 14.365-21.103-0.7662-4.093-5.4208-10.002-9.5209-12.085-3.6623-1.86-11.26-2.675-14.831-1.591zm1859.3 0.041c-7.26 2.915-11.4 8.755-11.41 16.109-0.01 9.424 4.45 15.918 12.83 18.691 12.88 4.258 26.4-8.627 22.89-21.812-1.18-4.426-6.06-10.425-10.25-12.596-3.2-1.661-10.4-1.86-14.06-0.392zm-1862.5 47.613c-7.0136 3.787-10.741 9.474-10.741 16.384 0 7.06 5.0198 14.366 11.575 16.848 7.8166 2.959 18.353-0.353 22.869-7.189 3.7942-5.744 3.5937-14.241-0.4522-19.25-4.8131-5.959-7.834-7.666-14.286-8.076-4.0817-0.26-6.8397 0.135-8.9644 1.283zm1862.9-0.419c-3.35 1.949-7.76 6.363-9.3 9.32-2.99 5.734-1.46 14.357 3.48 19.654 10.98 11.765 31.98 4.295 32.22-11.461 0.09-5.952-2.25-10.436-7.77-14.906-3.22-2.61-4.94-3.193-10.23-3.466-3.59-0.187-7.24 0.187-8.4 0.859zm-1686.9 19.995c-2.25 0.149-18.823 0.765-36.827 1.369-18.005 0.603-36.994 1.366-42.199 1.695-9.462 0.599-9.462 0.599-9.453 4.859 4e-3 2.343 0.307 6.747 0.67 9.785 0.662 5.523 0.662 5.523 23.265 4.825 12.431-0.384 30.84-1.15 40.908-1.703 10.068-0.551 18.413-0.878 18.543-0.724 0.131 0.153 1.026 10.196 1.988 22.312 0.964 12.13 2.8 31.04 4.082 42.03 1.282 11 2.207 20.14 2.055 20.32-0.881 1.05-19.053 3.5-19.85 2.68-0.768-0.79-5.096-31.55-8.07-57.34-0.697-6.05-0.759-6.14-3.767-5.94-18.165 1.21-55.428 4.85-56.123 5.48-1.765 1.61 4.278 59.99 9.118 88.1 3.162 18.36 8.409 43.85 9.63 46.77 0.909 2.18 0.909 2.18 17.613-1.77 9.188-2.17 31.386-7.41 49.331-11.64 17.944-4.22 32.784-7.84 32.977-8.03 0.193-0.2-0.482-4.24-1.5-9-1.529-7.14-2.21-8.69-3.921-8.95-1.139-0.16-11.234 1.76-22.431 4.29-42.657 9.6-54.878 12.07-55.689 11.24-2.948-3.05-16.338-90.92-14.178-93.05 0.222-0.22 5.006-0.56 10.633-0.75 10.23-0.35 10.23-0.35 11.913 13.49 2.112 17.37 7.18 49.87 7.976 51.16 0.566 0.92 57.608-10.08 58.879-11.35 0.315-0.32-0.568-8.59-1.961-18.4-4.842-34.05-7.726-68.26-7.746-91.88-0.011-11.559 0.904-10.989-15.866-9.878zm1511.5 11.096c0 11.535-4.1 10.254 37.85 11.834 16.03 0.602 32.72 1.381 37.08 1.729 7.93 0.633 7.93 0.633 7.93 5.152 0 11.157-7.1 83.497-8.64 88.057-0.27 0.78-3.59 0.49-10.84-0.97-11.95-2.4-11.07 1.49-7.2-31.59 1.09-9.39 2.31-21.48 2.71-26.85 0.71-9.73 0.7-9.78-1.72-10.26-1.35-0.27-11.88-1.01-23.41-1.65-11.54-0.64-24.25-1.43-28.25-1.76-7.27-0.59-7.27-0.59-7.98 8-2.92 35.6-8.98 75.32-16.67 109.21-0.35 1.53 0.08 2.39 1.39 2.8 2.02 0.63 59.53 14.11 81.68 19.13 7.32 1.66 14.29 3.25 15.51 3.53 1.91 0.44 2.35-0.13 3.33-4.35 0.62-2.68 1.25-7.17 1.38-9.99 0.24-5.13 0.24-5.13-17.15-9.47-9.56-2.39-27.05-6.5-38.87-9.13s-21.8-5.06-22.18-5.39c-0.38-0.34 0.2-4.97 1.3-10.3 2.71-13.2 6.62-40.62 8.23-57.83 0.84-8.91 1.79-14.39 2.55-14.68 0.67-0.26 5.52-0.09 10.77 0.38 9.56 0.84 9.56 0.84 9.25 4.43-0.32 3.69-1.5 12.89-5.39 41.8-1.23 9.18-2.03 16.91-1.77 17.17 0.63 0.63 55.65 11.75 58.17 11.75 1.09 0 1.98-0.41 1.98-0.92s0.89-6.16 1.97-12.56c4.55-26.96 9.16-72.72 10.93-108.64 0.69-13.982 0.69-13.982-11.99-14.621-18.7-0.943-84.77-3.692-88.63-3.688-3.32 3e-3 -3.32 3e-3 -3.32 9.678zm-900.22 107.25c0.014 115.25 0.014 115.25 14.578 121.86 8.011 3.64 25.152 11.53 38.093 17.53 23.444 10.88 41.951 19.41 78.673 36.3 13.309 6.12 20.061 8.71 21.647 8.31 1.268-0.32 9.367-3.87 17.998-7.9 14.966-6.97 23.788-11 47.918-21.86 5.91-2.66 19.95-9.14 31.2-14.39s27.6-12.77 36.32-16.71c15.85-7.16 15.85-7.16 16.11-122.67 0.26-115.52 0.26-115.52-2.15-112.61-1.33 1.597-6.51 8.517-11.52 15.379-18.43 25.283-74.29 101.03-99.17 134.49-14.096 18.96-28.29 38.27-31.542 42.92s-6.292 8.46-6.755 8.46c-0.462 0-3.276-3.35-6.252-7.43-2.976-4.09-17.662-24.04-32.636-44.34-14.972-20.29-31.774-43.13-37.335-50.74s-20.527-27.9-33.257-45.1c-12.73-17.19-27.372-36.997-32.539-44.006-9.394-12.742-9.394-12.742-9.381 102.51zm-785.37-91.68c-4.2842 2.117-8.1409 7.271-9.6048 12.84-2.5728 9.78 4.2434 20.48 13.989 21.94 12.664 1.91 23.019-7.51 21.65-19.68-1.3749-12.227-15.395-20.356-26.035-15.1zm1857.3 0.854c-10.79 7.346-10.34 24.376 0.81 30.926 8.77 5.15 21 1.79 25.55-7.03 2.09-4.03 2.13-11.82 0.1-15.76-2.01-3.88-6.72-8.6-9.74-9.757-4.81-1.834-12.79-1.061-16.72 1.621zm-1.46 45.546c-7.62 3.47-11.53 11.22-10.18 20.23 0.59 3.92 1.63 5.83 5.02 9.23 3.38 3.39 5.29 4.43 9.21 5.02 14.47 2.17 25.64-10.49 20.7-23.47-2.14-5.6-7.18-10.41-12.39-11.83-5.58-1.52-7.5-1.39-12.36 0.82zm-1853.1 1.32c-9.1823 4.73-11.912 17.13-5.8075 26.37 3.5283 5.34 7.7614 7.47 14.995 7.54 10.444 0.1 16.554-5.66 17.229-16.24 0.7314-11.48-5.4065-18.96-16.12-19.67-4.4511-0.29-6.6965 0.15-10.296 2zm1848.2 44.35c-5.1 1.82-7.73 4.25-10.03 9.28-3.7 8.07-1.32 18.38 5.33 23.13 5.11 3.64 14.28 3.96 20.37 0.7 14.35-7.68 11.41-28.99-4.62-33.45-5.11-1.42-6.22-1.39-11.05 0.34zm-1839.5 0.72c-8.721 3.22-13.64 11.07-12.348 19.71 0.9299 6.22 4.2935 10.94 9.7593 13.7 5.8812 2.98 11.79 2.96 17.503-0.07 15.051-7.98 10.103-32.47-6.8734-34.02-2.7355-0.25-6.3538 0.05-8.0417 0.68zm1831.1 45.4c-15.3 5.58-15.29 28.09 0.01 33.95 8.5 3.25 18.25 0.15 22.62-7.19 1.24-2.08 1.87-5.21 1.89-9.36 0.02-5.15-0.46-6.94-2.76-10.27-5.04-7.3-13.62-10.11-21.76-7.13zm-1826.2 2.56c-5.1262 3.13-8.5195 8.94-8.5195 14.58 0 6.07 1.0752 8.9 5.1416 13.54 11.309 12.91 32.666 2.32 30.342-15.04-0.7079-5.3-4.8398-11.3-9.2049-13.37-4.9359-2.35-13.674-2.2-17.759 0.29zm181.75 27.17c-9.282 3.01-31.362 10.16-49.065 15.88-17.703 5.73-32.326 10.55-32.494 10.72-0.17 0.17 0.964 3.95 2.519 8.41 2.155 6.17 3.316 8.16 4.875 8.37 2.019 0.26 25.027-6.53 59.777-17.64 9.809-3.13 18.118-5.7 18.464-5.7s2.605 6.35 5.021 14.1c2.415 7.75 7.849 23.09 12.075 34.08s8.782 22.87 10.126 26.39c2.44 6.4 2.44 6.4-6.885 11.1-5.129 2.58-9.691 4.31-10.139 3.84-0.916-0.95-15.305-36.95-20.411-51.07-1.834-5.07-3.436-9.34-3.56-9.5-0.122-0.15-10.995 3.71-24.162 8.56-13.165 4.86-25.894 9.52-28.286 10.37-2.392 0.84-4.348 2.08-4.348 2.76 0 2.14 8.753 27.29 14.128 40.6 11.713 29.01 36.713 83.13 39.846 86.27 1.486 1.49 91.29-46.32 91.29-48.61 0-0.73-7.586-14.53-8.793-15.99-0.309-0.38-4.824 1.98-44.752 23.35-32.614 17.46-29.126 16.01-30.531 12.67-0.657-1.57-4.155-9.3-7.775-17.18-16.626-36.2-29.11-68.44-27.186-70.2 1.075-0.98 17.274-7.21 18.752-7.21 0.58 0 1.056 0.51 1.056 1.13 0 2.63 24.987 61.4 26.106 61.4 0.677 0 12.918-5.79 27.203-12.88 22.615-11.21 25.951-13.16 25.808-15.12-0.09-1.23-2.91-8.47-6.267-16.08-11.961-27.11-22.153-55.09-29.489-80.93-2.474-8.71-4.841-16.19-5.26-16.61-0.42-0.42-8.359 1.7-17.643 4.72zm1459.9-0.71c-0.57 2.11-1.7 6.04-2.51 8.72-1.33 4.43-1.3 4.97 0.23 5.76 0.93 0.48 18.73 6.51 39.54 13.39 20.82 6.89 37.97 12.65 38.13 12.8 1.35 1.36-31.75 88.74-33.62 88.74-1.31 0-19.34-9.11-19.34-9.77 0-0.29 2.97-7.55 6.59-16.14 6.49-15.39 17.32-45.81 16.57-46.55-1.02-1.04-54.41-18.81-55.71-18.55-0.82 0.16-2.41 2.83-3.54 5.93-10.53 29.07-25.62 64.26-39.21 91.44-6.51 13.03-6.51 13.03 0.38 16.84 15.88 8.77 34.99 19.36 58.71 32.51 13.87 7.7 25.45 13.99 25.74 13.99 1.06 0 8.96-15.74 8.51-16.93-0.26-0.68-5-3.78-10.53-6.88-5.54-3.11-19.73-11.06-31.55-17.67-11.81-6.61-23.39-13.12-25.73-14.47-4.25-2.45-4.25-2.45 0.16-12.45 8.73-19.85 18.84-44.06 23.01-55.12 2.34-6.2 4.59-11.62 4.99-12.04 1.02-1.06 19.57 5.29 19.57 6.7 0 1.1-8.92 24.39-18.07 47.16-2.44 6.09-4.44 11.51-4.44 12.04 0 1.26 53.03 27.86 54.15 27.17 1.35-0.84 16.86-35.81 21.39-48.23 14.2-38.93 25.24-72.51 25.93-78.81 0.32-2.95 0.29-2.97-13.49-7.27-7.6-2.37-29.32-9.23-48.27-15.23-18.95-6.01-34.93-10.93-35.51-10.93s-1.52 1.73-2.08 3.85zm173.21 17.59c-2.32 1.05-5.54 3.66-7.17 5.79-2.51 3.3-2.95 4.81-2.95 10.19 0 11.14 7.12 18.38 18.1 18.4 4.82 0.01 6.57-0.52 10.23-3.07 11.72-8.2 10.45-24.18-2.43-30.61-6.29-3.14-10.06-3.31-15.78-0.7zm-1801.9 0.7c-7.4524 3.23-11.26 8.82-11.26 16.52 0 6.33 2.6311 11.26 8.0744 15.12 7.5712 5.38 17.674 3.75 24.405-3.93 12.008-13.7-4.3364-35.05-21.22-27.71zm1788.7 43.64c-10.13 5.61-13.81 18.26-7.94 27.32 7.7 11.9 24.86 10.77 31.55-2.07 1.73-3.32 1.91-12.37 0.3-15.5-1.7-3.31-6.14-7.86-9.29-9.5-3.27-1.72-11.73-1.86-14.62-0.25zm-1776.6 1.9c-5.8791 3.11-8.4192 7.51-8.8468 15.33-0.3386 6.16-0.1156 7.03 2.8633 11.13 7.606 10.47 21.573 10.76 29.299 0.61 6.5655-8.63 3.0802-22.46-6.9788-27.7-3.9058-2.04-11.873-1.73-16.337 0.63zm1758.6 44.32c-11.49 7.65-10.02 25.88 2.54 31.6 15.29 6.95 30.93-7.28 24.62-22.4-3.33-8-8.73-11.52-17.65-11.52-4.56 0-6.89 0.57-9.51 2.32zm-1742.8 0.34c-11.317 5.79-13.574 19.52-4.672 28.44 4.5574 4.57 9.7583 6.31 16.015 5.37 10.03-1.51 15.368-8.29 14.768-18.77-0.387-6.81-2.126-10.17-7.2486-14-3.7707-2.82-14.243-3.4-18.862-1.04zm1731.3 40.49c-10.59 2.52-16.71 14.02-12.87 24.18 6.08 16.14 30.75 14.81 34.75-1.87 1.58-6.61 0.58-11.38-3.31-15.82-5.28-6.03-11.45-8.18-18.57-6.49zm-1708.5 0.95c-4.462 0.94-6.9918 2.52-10.551 6.58-7.4504 8.5-4.2914 22.37 6.3671 27.94 4.0947 2.14 14.031 1.38 17.69-1.36 6.175-4.62 8.74-11.25 7.404-19.15-1.585-9.38-11.474-16-20.91-14.01zm193.86 34.05c-17.226 11.35-52.327 33.86-62.311 39.95-3.426 2.09-6.229 4.42-6.229 5.19 0 2.21 7.794 14.55 9.394 14.87 1.195 0.24 49.76-29.5 63.731-39.02 2.241-1.53 4.6-2.78 5.241-2.78 0.643 0 7.423 9.34 15.068 20.75 17.419 26.02 23.948 35.29 31.155 44.26 5.702 7.09 5.702 7.09 0.421 11.96-2.905 2.67-6.642 5.83-8.305 7.02-3.024 2.16-3.024 2.16-10.577-7.35-7.292-9.18-17.999-23.84-27.523-37.69-2.519-3.67-5.239-6.6-6.044-6.53-2.31 0.22-49.032 32.15-49.032 33.51 0 3.44 37.519 55.56 55.1 76.55 14.425 17.22 29.744 33.83 31.189 33.82 1.161-0.01 14.752-11.95 44.326-38.95 8.338-7.61 18.729-17.01 23.089-20.88s7.927-7.79 7.926-8.71-2.477-4.44-5.501-7.82c-5.499-6.15-5.499-6.15-12.018-0.53-5.896 5.09-22.002 19.26-47.061 41.4-9.068 8.02-9.152 8.07-11.287 6.16-7.384-6.61-39.351-47.15-53.765-68.19-6.113-8.92-6.613-7.4 5.155-15.66 3.836-2.69 7.103-4.74 7.263-4.54 0.159 0.2 5.719 7.51 12.359 16.25 15.732 20.7 29.029 36.91 30.865 37.62 0.805 0.31 3.397-0.98 5.76-2.87 8.397-6.72 36.039-30.44 37.941-32.56 1.925-2.15 1.857-2.26-14.474-23.96-18.629-24.75-33.92-47.13-46.239-67.67-4.648-7.75-8.746-14.09-9.106-14.07-0.36 0.01-7.79 4.72-16.511 10.47zm1306.4-3.86c-2.3 3.65-4.18 7.36-4.18 8.24 0 1.71 9.4 8.05 45.52 30.72 12.38 7.76 22.73 14.32 23 14.57 2.23 2.03-48.9 74.98-53.89 76.9-1.37 0.53-14.4-10.22-15.33-12.64-0.27-0.72 4.07-7.44 9.65-14.94 13.58-18.25 25.83-36.66 25.83-38.81 0-1.1-6.17-6.05-16.62-13.34-9.15-6.38-19.81-13.82-23.69-16.53-3.89-2.71-7.57-4.91-8.19-4.89-0.61 0.02-4.03 4.39-7.58 9.72-13.15 19.67-39.35 53.74-56.36 73.27-5.65 6.48-10.28 12.33-10.3 13-0.01 0.66 1.3 2.27 2.92 3.58s16.69 15.3 33.5 31.09c43.37 40.72 37.49 36.99 45.1 28.6 3.53-3.89 6.42-7.35 6.43-7.68 0.01-0.83-9.19-9.45-32.19-30.15-10.64-9.58-21.61-19.52-24.36-22.07-5.01-4.65-5.01-4.65 5.3-16.66 10.53-12.26 24.36-30.07 35.79-46.09 3.52-4.93 6.82-8.97 7.33-8.97 1.71 0 16.23 10.75 16.28 12.05 0.02 0.71-8.24 12.31-18.37 25.76-10.13 13.46-18.41 24.97-18.41 25.58 0 0.88 16.19 15.13 44.2 38.9 1.57 1.33 2.01 1.17 4.22-1.46 4.13-4.93 29.32-37.32 35.04-45.06 13.8-18.67 41.83-63.05 41.12-65.12-0.49-1.43-84.7-54.2-86.49-54.2-0.6 0-2.97 2.98-5.27 6.63zm184.01 13.1c-3.57 1.8-5.18 3.51-7.38 7.87-3.28 6.5-3.56 11.52-0.91 16.46 5.72 10.69 19.65 13.62 28.35 5.96 4.78-4.21 6.58-7.92 6.58-13.64 0-5.56-1.63-9.02-6.38-13.59-5.92-5.71-12.93-6.77-20.26-3.06zm-1668.6 0.79c-4.561 2.41-7.345 5.83-9.615 11.78-2.142 5.62-1.411 10.14 2.523 15.58 5.795 8.02 16.328 9.9 24.901 4.45 5.675-3.6 8.29-8.15 8.285-14.41-3e-3 -4.86-2.834-11.55-6.166-14.57-2.854-2.58-8.995-4.91-12.826-4.86-1.847 0.03-5.043 0.94-7.102 2.03zm1647.4 41.05c-2.41 1.23-5.64 3.87-7.16 5.87-2.37 3.12-2.76 4.62-2.76 10.56 0 7.72 1.61 10.89 7.62 14.99 12.2 8.33 28.06-0.21 28.06-15.09 0-13.36-14.08-22.29-25.76-16.33zm-1627.8 1.76c-7.899 4.32-10.761 16.37-5.94 25.02 3.401 6.1 6.889 8.3 13.946 8.81 11.803 0.86 19.908-6.36 19.908-17.72 0-6.33-2.171-10.78-7.085-14.53-4.958-3.79-15.338-4.58-20.829-1.58zm1602.8 38.22c-12.56 6.64-13.12 25.31-0.97 32.45 12.88 7.56 27.82-0.84 27.82-15.67 0-13.69-14.99-23.06-26.85-16.78zm-1576.5 1.05c-2.219 1.17-5.221 4.13-6.981 6.87-2.7 4.21-3.039 5.55-2.698 10.62 0.936 13.93 13.65 21.93 25.949 16.33 4.998-2.27 8.052-6.25 9.637-12.56 3.771-15.01-12.496-28.35-25.907-21.26zm1555 37.82c-13.9 4.2-18.7 19.97-9.16 30.08 3.97 4.2 7.61 5.8 13.19 5.8 10.26 0 17.82-7.42 17.91-17.57 0.08-8.98-4.99-15.95-13.29-18.26-4.33-1.2-4.81-1.21-8.65-0.05zm-1529.6 2.95c-14.742 9.17-12.429 29.64 3.846 34.03 14.694 3.96 27.503-10.47 21.68-24.43-1.871-4.49-5.028-8.08-8.851-10.08-4.012-2.09-12.958-1.83-16.675 0.48zm1293.1 16.52c-6.06 6.14-6.06 6.14-3.01 9.48 12.21 13.37 17.44 18.95 34.2 36.53 10.41 10.91 19.06 20.19 19.22 20.61 0.73 1.9-71.41 63.57-74.36 63.57-1.12 0-11.35-15.18-11.35-16.85 0-0.7 8.33-8.12 18.51-16.49 10.19-8.36 21.75-18.24 25.7-21.95 7.19-6.74 7.19-6.74 3.37-11.34-4.1-4.93-36.55-39.97-37.02-39.97-0.16 0-7.78 6.37-16.93 14.16-21.77 18.52-34.78 28.54-59.41 45.78-14.43 10.1-20.09 14.61-19.67 15.69 0.79 2.08 10.32 18.41 20.45 35.07 4.63 7.62 13.13 21.77 18.89 31.45 5.77 9.69 11.05 18.38 11.73 19.32 1.13 1.54 2 1.25 9.12-3.08 4.32-2.63 7.87-5.18 7.87-5.65 0-1.29-10.49-19.26-19.56-33.52-11.63-18.27-22.74-38.31-21.73-39.19 0.48-0.42 6.63-4.84 13.67-9.82 15.3-10.84 31.23-23.23 44.19-34.36 5.23-4.49 10.05-8.17 10.7-8.17 1.26 0 13.65 13.07 13.65 14.41 0 1.08-9.43 9.17-31.42 26.95-10.24 8.29-18.92 15.55-19.29 16.14-0.87 1.42 31.37 50.07 33.21 50.1 1.87 0.03 30.34-21.57 49.18-37.31 24.56-20.53 58.34-52.39 58.34-55.04 0-1.57-70.16-72.66-71.71-72.66-0.26 0-3.2 2.77-6.54 6.14zm-1084.2 33.77c-19.511 19.73-35.475 36.24-35.475 36.7s3.118 3.94 6.928 7.73c6.927 6.88 6.927 6.88 35.355-22.84 15.634-16.35 28.91-29.72 29.5-29.72 0.592 0 4.823 3.54 9.402 7.86 10.885 10.28 31.762 28.15 47.456 40.63 6.893 5.47 12.534 10.3 12.535 10.71 8e-3 1.76-10.848 16.63-11.964 16.4-1.575-0.33-38.762-29.54-47.119-37.02-3.704-3.31-7.001-5.48-7.835-5.16-2.787 1.07-39.856 42.9-39.31 44.35 0.996 2.67 42.258 36.56 65.305 53.64 11.984 8.88 48.452 33.62 49.562 33.62 0.336 0 3.654-4.73 7.373-10.5 3.718-5.78 10.336-16.05 14.704-22.81 10.933-16.93 32.706-51.76 32.706-52.32 0-0.25-3.215-2.6-7.145-5.22-6.279-4.18-7.352-4.58-8.865-3.34-0.946 0.79-11.369 15.96-23.162 33.71-11.792 17.76-21.77 32.42-22.171 32.58-1.116 0.44-40.545-28.27-57.835-42.11-16.762-13.41-21.994-18.05-21.994-19.48 0-1.06 9.354-13.06 11.714-15.02 1.288-1.07 2.15-0.79 5.057 1.64 14.232 11.91 20.634 16.93 36.243 28.43 9.746 7.18 18.127 12.92 18.624 12.74 0.499-0.17 8.326-11.14 17.396-24.38 15.812-23.07 16.41-24.13 14.522-25.63-1.085-0.85-10.902-8.56-21.819-17.13-21.587-16.93-32.946-26.67-57.047-48.87-8.645-7.97-16.043-14.61-16.442-14.77-0.399-0.15-16.689 15.86-36.199 35.58zm1292.1-15.36c-10.09 3.21-15.53 12.02-13.64 22.11 0.71 3.77 5.46 10 9.13 11.97 13.75 7.37 31.17-5.09 27.3-19.52-2.94-10.91-13.35-17.56-22.79-14.56zm-1475.5 5.45c-7.793 7.81-8.585 18.41-1.956 26.17 4.242 4.97 9.174 6.85 15.636 5.96 12.754-1.75 19.867-14.29 14.596-25.74-3.549-7.7-8.727-10.76-18.217-10.76-5.339 0-5.967 0.27-10.059 4.37zm1443 31.57c-6.81 2.88-11.54 10.21-11.54 17.9 0 10.82 7.1 17.91 17.94 17.91 4.3 0 6.49-0.64 10.22-3.01 5.98-3.8 8.33-8.15 8.27-15.26-0.06-5.9-3.29-11.84-8.58-15.77-3.1-2.3-12.61-3.34-16.31-1.77zm-1408.5 1.74c-1.911 1.05-4.882 3.86-6.603 6.24-2.508 3.47-3.208 5.59-3.522 10.7-0.332 5.4-0.022 6.91 2.024 9.93 6.913 10.2 19.308 11.77 28.338 3.6 7.028-6.37 7.872-16.01 2.098-24-3.943-5.45-6.518-6.96-13.235-7.73-4.437-0.51-6.361-0.24-9.1 1.26zm1378.2 32.73c-2.94 0.58-10.3 7-12.17 10.62-2.18 4.23-1.91 12.57 0.58 17.45 2.47 4.86 6.89 7.81 13.07 8.74 16.22 2.44 27.55-15.86 17.76-28.67-4.48-5.85-12.84-9.38-19.24-8.14zm-1345.1 2.95c-7.288 3.8-10.741 9.39-10.741 17.37 0 11 9.976 19.4 20.928 17.62 4.959-0.81 11.387-5.45 13.384-9.67 2.151-4.54 2.231-12.28 0.167-16.24-1.746-3.36-6.217-7.79-9.604-9.54-3.2-1.64-10.547-1.4-14.134 0.46zm1044.6 25.5c-3.28 1.86-6.41 3.84-6.96 4.4-0.94 0.94 7.85 18.57 29.96 60.06 3.85 7.24 7 13.53 7 13.98 0 2.19-89.15 44.47-90.48 42.92-1.18-1.39-7.41-19.97-6.87-20.5 0.37-0.37 9.65-4.69 20.61-9.59 16.34-7.31 41.54-19.37 42.77-20.47 0.66-0.6-25.95-53.1-27.15-53.56-0.72-0.28-9.47 3.43-19.45 8.23-28 13.47-67.5 29.61-91.54 37.39-2.68 0.86-4.86 1.99-4.86 2.49 0 0.51 4.61 16.67 10.25 35.92 5.65 19.25 11.95 41.14 14.01 48.64s4.25 13.64 4.88 13.64c0.62 0 5.02-1.32 9.78-2.93 7.13-2.42 8.59-3.27 8.32-4.87-0.49-2.82-4.77-17.13-10.4-34.74-7.43-23.23-12.61-42.64-11.63-43.59 0.48-0.47 8.93-3.95 18.78-7.73 20.68-7.95 39.17-15.68 53.6-22.4 5.58-2.6 10.24-4.6 10.37-4.45 0.9 1.02 8.66 17.35 8.66 18.21 0 1.35-20.55 11.21-43.87 21.05-9.77 4.12-18.19 7.92-18.7 8.43-0.56 0.56-0.46 2.13 0.24 3.92 0.65 1.64 5.06 14.05 9.8 27.58 4.75 13.53 9.01 24.98 9.48 25.45 1.63 1.63 42.55-15.58 77.32-32.52 20.14-9.81 46.93-24.57 50.84-28.01 1.63-1.43 1.47-2.1-2.42-9.87-2.28-4.59-7.26-13.88-11.06-20.65-3.79-6.76-10.92-19.68-15.84-28.7-14.83-27.18-17.24-31.26-18.38-31.2-0.6 0.04-3.78 1.6-7.06 3.47zm-734.94 2.87c-0.565 0.71-2.291 3.82-3.838 6.92-1.546 3.1-5.208 9.79-8.137 14.87-15.746 27.27-35.57 63.24-35.696 64.76-0.096 1.16 2.415 3.21 7.528 6.15 4.22 2.42 8.189 4.41 8.821 4.42 0.631 0 5.195-7.72 10.14-17.16 9.483-18.11 24.954-46.68 28.295-52.25 1.979-3.3 1.979-3.3 22.13 6.8 11.083 5.56 29.583 14.14 41.11 19.06 11.527 4.93 21.143 9.12 21.369 9.33 0.468 0.42-4.664 16.63-5.901 18.63-1.005 1.63-12.708-2.34-29.932-10.15-13.944-6.32-34.636-15.25-35.332-15.25s-25.918 51.88-25.918 53.31c0 1.34 28.407 15.25 50.126 24.55 22.45 9.6 80.045 29.77 85.02 29.77 0.954 0 2.096-2.15 3.137-5.9 0.9-3.24 7.043-24.57 13.652-47.41 6.608-22.83 12.068-42.41 12.134-43.5 0.097-1.61-1.337-2.43-7.552-4.35-4.22-1.3-8.211-2.36-8.87-2.37-1.361 0-0.805-1.67-14.719 44.07-5.746 18.89-10.591 34.51-10.769 34.72-0.568 0.66-38.086-13.15-58.223-21.43-29.002-11.94-37.656-16.1-36.997-17.83 3.518-9.18 7.317-17.24 8.312-17.62 0.679-0.26 9.942 3.39 20.586 8.12 24.08 10.69 46.442 19.53 47.281 18.69 1.178-1.18 19.64-55.26 19.64-57.53 0-0.1-4.718-1.92-10.486-4.04-22.063-8.08-68.367-29.29-90.873-41.61-7.079-3.88-13.352-7.05-13.941-7.05-0.588 0-1.532 0.58-2.097 1.28zm998.39 3.92c-6.88 3.51-9.8 8.13-10.24 16.22-0.32 5.79-0.02 7.29 2.04 10.34 4.91 7.23 13.01 10.52 20.43 8.29 5.27-1.58 11.68-7.43 13.2-12.05 4.84-14.7-11.88-29.69-25.43-22.8zm-1273.3 0.85c-10.505 4.87-14.684 15.98-9.698 25.77 4.76 9.35 16.751 12.58 25.41 6.84 12.997-8.61 11.717-26.22-2.372-32.63-5.217-2.37-8.194-2.37-13.34 0.02zm1238.8 30.26c-1.73 0.76-4.83 2.85-6.89 4.67-11.09 9.76-4.31 29.03 11.03 31.34 9.01 1.35 19.18-6.28 20.55-15.43 2.06-13.73-12.52-25.89-24.69-20.58zm-1204 0.97c-5.248 2.45-9.606 7.92-10.61 13.31-2.305 12.35 5.259 22.19 17.065 22.19 14.172 0 23.534-13.76 17.395-25.56-3.524-6.78-8.831-10.58-15.4-11.01-3.201-0.22-6.624 0.22-8.45 1.07zm37.979 29.83c-2.182 0.78-5.51 2.92-7.398 4.75-10.224 9.93-5.603 27.51 8.043 30.59 10.679 2.42 21.157-4.8 22.786-15.68 1.259-8.41-5.01-17.7-13.558-20.08-4.779-1.33-5.002-1.32-9.873 0.42zm1126.9 0.67c-13.13 6.51-12.4 26.59 1.19 32.77 5.64 2.56 10.64 2.44 15.98-0.39 5.33-2.82 8.01-6.18 9.22-11.58 3.46-15.45-12.23-27.82-26.39-20.8zm-375.41 5.36c-4.64 1.15-8.44 2.6-8.44 3.23 0 1.28 15.75 71.4 17.3 77.02 0.87 3.17 0.74 3.64-1.26 4.39-8.96 3.37-96.03 18.68-97.55 17.16-0.2-0.21-0.96-5.29-1.68-11.28-1.32-10.91-1.32-10.91 1.81-11.37 1.72-0.25 11.87-1.66 22.56-3.14 10.69-1.47 24.96-3.69 31.71-4.93 10.61-1.94 12.31-2.52 12.55-4.3 0.3-2.24-10.5-56.71-11.43-57.65-0.32-0.32-11.98 1.34-25.91 3.7-30.34 5.11-52.96 7.76-80.83 9.46-20.718 1.26-20.718 1.26-20.713 4.43 5e-3 2.78 1.652 41.43 3.647 85.57 0.667 14.75 0.667 14.75 10.425 14.11 5.366-0.35 10.001-0.89 10.301-1.19 0.3-0.29-0.34-17.25-1.41-37.68-1.06-20.43-1.95-38.99-1.97-41.25-0.03-4.1-0.03-4.1 11.74-4.85 16.99-1.09 46.15-4.47 64.34-7.46 8.66-1.43 15.89-2.45 16.07-2.27 0.77 0.77 3.78 20.25 3.21 20.82-0.75 0.76-27.99 4.66-50.11 7.17-8.86 1.01-16.59 2.14-17.19 2.51-0.76 0.47-0.47 9.71 0.96 30.68 1.13 16.5 2.27 30.23 2.54 30.49 0.26 0.27 5.69-0.04 12.07-0.68 33.28-3.35 64.96-8.59 102.03-16.89 27.35-6.12 28.73-6.52 28.73-8.39 0-3.84-23.16-97.83-24.37-98.88-0.38-0.34-4.49 0.33-9.13 1.47zm-362.36 5.54c-0.601 2.11-3.229 12.6-5.839 23.32-2.612 10.71-7.643 31.2-11.18 45.54s-6.234 26.39-5.993 26.78c0.762 1.23 18.976 4.37 19.811 3.41 0.435-0.5 1.592-4.83 2.572-9.62 2.045-10.01 14.724-66.18 15.58-69.04 0.433-1.44 1.221-1.76 3.281-1.32 34.026 7.26 61.768 12.06 79.434 13.73 8.184 0.77 8.184 0.77 7.85 11.02-0.184 5.64-0.646 10.57-1.026 10.97-0.382 0.4-6.676-0.13-13.989-1.18-37.311-5.31-54.757-7.54-55.251-7.04-0.904 0.9-11.793 58.54-11.176 59.15 0.608 0.61 13.512 2.96 34.207 6.23 27.928 4.4 64.983 7.96 92.836 8.91 19.693 0.67 19.693 0.67 19.693-21.87 0-12.4 0.304-35.77 0.676-51.93 0.676-29.38 0.676-29.38-9.042-29.38-9.719 0-9.719 0-11.162 41.26-1.443 41.25-1.443 41.25-13.208 41-19.226-0.41-57.156-4.34-82.606-8.56-5.628-0.93-7.412-1.62-7.399-2.87 0.023-2.09 2.905-19.78 3.282-20.14 0.154-0.15 3.955 0.37 8.444 1.16 7.018 1.23 37.158 4.96 57.415 7.1 6.243 0.67 6.243 0.67 6.881-5.82 0.351-3.57 1.111-15.72 1.689-26.99 0.579-11.28 1.296-21.98 1.595-23.78 0.636-3.85 3.165-3.21-25.617-6.46-23.025-2.6-33.7-4.38-70.963-11.83-15.399-3.08-28.382-5.6-28.852-5.6-0.469 0-1.344 1.73-1.943 3.85zm699.02 17.18c-10.17 6.11-11.31 21.44-2.23 29.9 7.63 7.12 21.13 5.3 27.15-3.65 4.78-7.11 4.03-15.43-2.02-22.33-6.09-6.96-15.24-8.52-22.9-3.92zm-1053.2 0.76c-10.112 6.19-12.807 18.97-5.866 27.81 7.611 9.7 25.029 7.54 30.497-3.78 2.628-5.44 2.693-10.19 0.211-15.58-4.611-10.01-15.979-13.88-24.842-8.45zm41.118 24.6c-2.478 1.26-5.913 4.07-7.634 6.24-2.8 3.53-3.128 4.67-3.128 10.94 0 5.51 0.458 7.63 2.142 9.9 5.251 7.1 15.94 9.55 23.888 5.49 13.354-6.83 13.159-25.58-0.335-32.32-6.323-3.16-9.167-3.21-14.933-0.25zm975.4-0.67c-7.5 4.11-10.74 9.12-10.74 16.6 0 14.59 14.87 23.34 27.28 16.05 14.87-8.73 9.08-32.83-8.17-33.97-3.55-0.24-6.31 0.2-8.37 1.32zm-39.71 24.45c-7.38 2.63-10.93 8.14-10.93 16.96 0 10.66 5.86 17.26 16.08 18.11 4.83 0.4 6.75 0.05 10.46-1.89 5.73-3 8.06-6.23 8.88-12.3 0.95-7.09-0.3-11.74-4.38-16.26-5.26-5.84-12.23-7.44-20.11-4.62zm-896.34 0.5c-3.304 1.35-8.536 7.28-9.799 11.11-1.562 4.75-0.651 13.07 1.803 16.45 5.527 7.6 18.894 9.59 26.326 3.91 4.871-3.72 7.041-8.19 7.041-14.5 0-7.82-4.18-14.31-10.845-16.84-3.345-1.27-11.537-1.34-14.526-0.13zm855.23 20.05c-10.17 3.6-15.21 15.93-10.47 25.63 1.82 3.73 7.2 8.65 10.73 9.82 6.99 2.31 16.24-0.98 21.04-7.48 1.24-1.66 2.24-4.98 2.51-8.29 1.12-13.47-11.61-23.99-23.81-19.68zm-813.8 1.39c-8.686 4.63-12.687 16.9-8.311 25.49 2.692 5.29 7.819 8.48 14.702 9.16 10.946 1.07 19.149-6.69 19.183-18.16 0.041-13.88-13.771-22.78-25.574-16.49zm44.516 19.11c-4.393 1.55-8.631 5.88-11.337 11.6-3.254 6.87 0.336 17.39 7.335 21.5 5.175 3.04 15.212 2.81 19.591-0.44 12.808-9.51 9.597-29.29-5.366-33.07-5.431-1.37-5.165-1.38-10.223 0.41zm723.87 0.22c-1.91 0.95-4.82 3.82-6.47 6.39-2.64 4.12-2.95 5.4-2.62 10.95 0.29 4.97 0.97 7.08 3.28 10.1 9.77 12.84 30.31 8.23 32.05-7.19 0.28-2.45 0.19-6.11-0.19-8.13-0.77-4.13-5.58-10.16-9.89-12.39-3.83-1.98-11.87-1.85-16.16 0.27zm-38.63 16.65c-5.75 1.37-9.99 4.54-12.37 9.25-7.38 14.59 5.11 30.5 20.83 26.53 6.2-1.56 10.98-6.38 12.56-12.66 2.49-9.9-3.38-20.37-12.9-23.02-2.13-0.59-4.1-1.03-4.38-0.97-0.28 0.05-1.97 0.45-3.74 0.87zm-645.96 2.36c-5.302 3.53-8.299 10.2-7.824 17.43 1.254 19.08 27.285 23.17 34.076 5.35 3.369-8.84-0.385-19.75-8.053-23.4-5.299-2.52-13.928-2.23-18.199 0.62zm600.88 13.02c-12.99 3.13-17.41 18.11-8.74 29.62 7.12 9.46 23.9 7.79 29.43-2.93 2.33-4.51 1.94-13.06-0.82-17.93-3.67-6.51-12.71-10.49-19.87-8.76zm-554.64 1.8c-5.315 2.62-9.313 9.71-9.313 16.5 0 7.77 2.992 12.78 9.597 16.08 5.674 2.83 7.543 3.05 13.133 1.49 12.045-3.35 16.99-19.87 8.761-29.26-1.734-1.98-4.442-4.27-6.018-5.09-3.824-1.98-11.865-1.84-16.16 0.28zm44.824 12.92c-6.176 3.27-10.531 11.36-9.881 18.35 0.563 6.06 4.498 12.21 9.258 14.47 5.299 2.52 13.928 2.23 18.199-0.61 7.202-4.8 10.13-16.3 6.142-24.12-2.393-4.7-4.716-6.86-9.575-8.89-5.218-2.19-8.896-1.98-14.143 0.8zm461.96-0.93c-5.96 2.65-10.77 10.38-10.72 17.22 0.03 4.54 3.1 10.9 7.08 14.64 3.01 2.85 3.83 3.08 10.79 3.08 8.06 0 11.03-1.34 15.1-6.81 6.11-8.2 2.79-21.78-6.77-27.61-3.75-2.3-10.96-2.54-15.48-0.52zm-416.64 12c-4.684 2.32-8.898 8.2-10.065 14.05-1.619 8.11 4.278 17.27 12.623 19.59 5.726 1.59 8.557 1.34 13.613-1.22 13.448-6.81 13.171-26.45-0.462-32.65-5.493-2.5-10.35-2.43-15.709 0.23zm372.45-1.04c-4.9 1.42-10.15 6.93-11.55 12.12-3.42 12.75 7.14 25.22 19.66 23.22 12.8-2.05 18.96-12.37 14.65-24.5-3.32-9.33-12.65-13.77-22.76-10.84zm-326.24 9.02c-7.62 3.47-12.175 13.47-9.779 21.49 3.483 11.65 14.966 16.62 25.771 11.15 6.646-3.36 9.345-8.55 8.937-17.19-0.239-5.05-0.911-7.52-2.753-10.12-2.84-3.99-9.298-7.24-14.402-7.24-1.97 0-5.468 0.86-7.774 1.91zm277.24-0.02c-6.87 4.2-9.45 10.35-8.11 19.32 0.93 6.17 7.13 12.81 13.59 14.56 10.97 2.96 21.69-6.01 21.72-18.17 0.01-5.64-4.95-13.35-10.43-16.2-4.03-2.1-12.95-1.84-16.77 0.49zm-232.21 6.15c-10.543 6.45-12.267 20.26-3.611 28.94 6.242 6.25 13.137 7.16 21.703 2.87 4.383-2.2 6.581-5.3 8.128-11.45 2.082-8.29-2.418-17.75-9.937-20.9-4.814-2.01-12.519-1.76-16.283 0.54zm189.34-0.74c-8.1 3.02-11.76 8.42-11.76 17.32 0 13.67 12.82 22.05 25.14 16.44 12.76-5.8 14.02-23.48 2.3-32.18-3.24-2.41-11.29-3.22-15.68-1.58zm-143.86 5.41c-5.011 3.41-7.458 8.84-7.506 16.64-0.042 6.82 1.529 10.01 6.915 14.04 4.286 3.21 13.387 3.42 19.072 0.45 6.194-3.23 8.307-6.49 8.928-13.75 0.431-5.06 0.112-6.8-1.95-10.66-3.585-6.7-7.828-9.22-15.527-9.22-4.95 0-7.029 0.52-9.932 2.5zm48.668-1.06c-3.687 1.61-8.386 6.91-9.276 10.46-1.354 5.41 0.119 14.39 2.975 18.14 5.541 7.28 17.578 8.83 24.93 3.21 4.749-3.62 6.486-7.53 6.486-14.58 0-10.81-7.45-18.73-17.546-18.63-2.447 0.02-5.852 0.65-7.569 1.4zm45.599 0.8c-5.858 3.98-8.209 8.41-8.209 15.45 0 7.98 2.874 13.31 8.696 16.13 8.963 4.35 20.763 1.2 24.423-6.52 2.39-5.06 2.12-12.64-0.64-18.06-3.27-6.41-6.67-8.56-14.33-9.03-5.42-0.33-6.92-0.03-9.94 2.03z" clip-rule="evenodd" fill="#BB795A" fill-rule="evenodd"/>
</svg>
