<svg xmlns="http://www.w3.org/2000/svg" width="1200" height="630" viewBox="0 0 1200 630"
  font-family="'DejaVu Sans','Inter',Arial,sans-serif">
  <defs>
    <linearGradient id="bg" x1="0" y1="0" x2="1" y2="1">
      <stop offset="0" stop-color="#2E0E2D" />
      <stop offset="1" stop-color="#1A0720" />
    </linearGradient>
    <linearGradient id="terr" x1="0" y1="0" x2="1" y2="1">
      <stop offset="0" stop-color="#CB8A64" />
      <stop offset="1" stop-color="#A8654A" />
    </linearGradient>
    <filter id="soft" x="-30%" y="-30%" width="160%" height="160%">
      <feDropShadow dx="0" dy="8" stdDeviation="12" flood-color="#000000" flood-opacity="0.40" />
    </filter>
  </defs>

  <rect width="1200" height="630" fill="url(#bg)" />
  <circle cx="1080" cy="110" r="240" fill="#BB795A" opacity="0.06" />
  <circle cx="110" cy="580" r="190" fill="#BB795A" opacity="0.05" />

  <!-- Header -->
  <svg viewBox="0 0 1000 1000" x="80" y="64" width="66" height="66" xmlns="http://www.w3.org/2000/svg">
    <circle cx="500" cy="500" r="500" fill="#270B29" />
    <path
      d="m474.11 959.04c-5.476-2.213-6.823-8.972-2.743-13.825 3.496-4.169 8.309-4.228 12.369-0.159 4.378 4.387 3.457 10.619-1.97 13.428-3.298 1.717-4.566 1.806-7.656 0.556zm19.896-1.449c-3.506-3.524-3.318-8.744 0.465-12.535 5.942-5.945 13.944-2.273 13.944 6.411 0 3.613-0.485 4.824-2.605 6.501-3.624 2.848-8.734 2.689-11.804-0.377zm26.788 1.637c-6.338-1.27-8.705-9.924-4.011-14.639 5.467-5.468 14.409-1.568 14.409 6.283 0 5.607-4.823 9.478-10.398 8.356zm-69.817-2.471c-3.278-1.667-5.259-5.965-4.447-9.657 0.802-3.702 4.823-6.927 8.616-6.927 4.05 0 8.705 4.784 8.705 8.932 0 2.134-0.921 4.049-2.892 6.034-3.119 3.127-6.061 3.603-9.982 1.618zm89.287-0.308c-6.853-4.813-3.269-16.276 5.09-16.276 4.08 0 8.616 4.823 8.616 9.17 0 6.769-8.161 10.997-13.706 7.106zm-113.6-3.821c-3.664-3.682-3.386-9.478 0.624-12.862 1.674-1.419 4.09-2.571 5.368-2.571 3.842 0 8.418 4.596 8.418 8.446 0 4.665-0.832 6.303-4.031 7.97-4.09 2.114-7.616 1.776-10.379-0.983zm135.15-0.466c-3.783-3.791-3.971-9.012-0.466-12.535 5.289-5.29 14.409-1.578 14.409 5.875 0 4.814-0.812 6.432-4.03 8.109-4.159 2.154-6.685 1.776-9.913-1.449zm-157.46-3.97c-1.971-1.985-2.892-3.9-2.892-6.034 0-4.268 4.654-8.932 8.913-8.932 4.258 0 8.913 4.664 8.913 8.932 0 4.267-4.655 8.932-8.913 8.932-2.129 0-4.041-0.923-6.021-2.898zm180.5 1.38c-7.031-5.082-3.04-16.346 5.784-16.346 1.159 0 3.407 1.31 5.001 2.898 3.397 3.414 3.892 8.545 1.149 11.939-2.357 2.918-8.854 3.732-11.934 1.509zm-199.24-4.149c-4.981-1.836-7.15-7.97-4.585-12.952 1.743-3.364 3.337-4.208 7.962-4.208 6.051 0 10.002 7.116 7.09 12.763-2.297 4.457-6.04 6.035-10.467 4.397zm224.31-0.099c-6.268-1.221-8.843-10.481-4.149-14.907 3.426-3.216 9.794-2.987 12.498 0.456 5.239 6.68-0.169 16.039-8.349 14.451zm-249.56-9.3c-2.07-2.471-2.526-3.811-2.05-6.153 2.119-10.649 17.4-9.875 17.4 0.873 0 8.188-10.012 11.632-15.35 5.28zm269.37 2.015c-3.209-1.767-4.457-3.97-4.457-7.87 0-4.744 2.535-7.771 7.131-8.506 3.178-0.516 4.08-0.178 6.684 2.432 4.605 4.605 4.13 10.967-1.01 13.636-3.308 1.707-5.625 1.797-8.348 0.308zm-155.98-2.838c-93.803-6.521-183.25-42.935-254.51-103.61-13.825-11.771-36.672-34.32-47.951-47.311-37.652-43.381-68.283-97.431-85.722-151.27-13.25-40.919-19.588-79.11-20.539-123.78-0.7625-35.778 2.0698-66.456 9.21-99.813 20.183-94.235 72.946-181.72 146.5-242.9 15.806-13.15 23.926-19.184 41.088-30.508 57.062-37.645 119.1-60.283 187.47-68.421 26.521-3.1561 73.442-3.1462 100.72 0.0198 35.434 4.1188 69.372 12.247 101.51 24.306 82.909 31.124 155.34 87.854 206.17 161.47 13.35 19.334 20.401 31.273 30.879 52.303 49.406 99.168 59.785 209.04 29.689 314.42-25.431 89.025-82.919 171.36-160 229.13-61.994 46.457-137.78 76.271-214.81 84.499-17.231 1.846-53.397 2.6-69.698 1.469zm69.213-12.406c48.981-5.32 93.466-18.143 139.25-40.146 110.92-53.315 196.57-156.44 227.7-274.15 19.469-73.592 19.024-147.6-1.327-221.26-28.393-102.77-96.358-193.06-187.75-249.42-57.924-35.729-122.6-56.432-191.13-61.186-20.658-1.4391-59.974-0.6451-79.225 1.5879-87.188 10.113-167.74 46.805-234.7 106.92-39.752 35.679-74.7 82.335-97.754 130.49-20.361 42.537-33.057 85.869-39.93 136.25-2.149 15.711-2.9907 58.179-1.5449 77.413 3.0898 41.128 12.122 83.02 25.402 117.81 32.155 84.241 86.989 153.48 162.35 204.96 54.586 37.297 121.8 62.327 188.66 70.267 27.016 3.206 63.014 3.394 90.01 0.467zm-202.16 8.366c-2.773-1.618-4.912-6.649-4.199-9.905 0.802-3.662 4.843-6.887 8.616-6.887 4.219 0 8.705 4.773 8.705 9.259 0 6.114-7.844 10.61-13.122 7.533zm308.16-1.826c-3.902-3.92-3.942-8.624-0.119-12.297 3.832-3.682 8.338-3.592 12.161 0.229 1.971 1.985 2.892 3.9 2.892 6.034s-0.921 4.049-2.892 6.034c-1.981 1.975-3.892 2.898-6.021 2.898s-4.041-0.923-6.021-2.898zm-331.09-9.091c-2.921-3.474-3.188-5.766-1.119-9.776 1.674-3.225 3.288-4.039 8.091-4.039 7.428 0 10.705 7.89 5.724 13.815-2.04 2.432-3.337 3.057-6.348 3.057-3.01 0-4.308-0.625-6.348-3.057zm353.84 1.568c-5.377-2.928-5.971-10.59-1.129-14.411 3.823-3.007 8.467-2.58 11.547 1.092 3.476 4.129 3.357 8.208-0.326 11.91-3.169 3.166-6.111 3.583-10.092 1.409zm-373.01-9.101c-2.199-0.883-4.397-6.312-3.704-9.121 2.545-10.262 17.34-9.11 17.34 1.35 0 4.982-3.584 8.466-8.615 8.357-2.07-0.04-4.328-0.308-5.021-0.586zm391.53-2.392c-1.416-1.677-2.565-3.93-2.565-5.012 0-5.002 4.902-9.795 10.022-9.795 3.328 0 7.804 5.28 7.804 9.21 0 8.188-10.002 11.86-15.261 5.597zm-412.91-9.488c-5.645-5.657-1.842-14.252 6.298-14.252 8.289 0 11.805 8.168 6.021 13.974-3.842 3.841-8.665 3.95-12.319 0.278zm433.76 0c-4.337-4.347-3.357-11.215 2.02-14.093 3.714-1.975 7.2-1.35 10.419 1.876 2.604 2.61 2.941 3.523 2.436 6.699-1.218 7.612-9.656 10.749-14.875 5.518zm-452.66-11.522c-1.387-1.231-2.803-3.672-3.14-5.439-0.524-2.749-0.118-3.702 2.872-6.699 4.199-4.208 7.329-4.466 11.528-0.923 2.456 2.074 3.05 3.325 3.05 6.491 0 7.8-8.497 11.691-14.31 6.57zm472.35 0c-1.525-1.33-2.803-3.712-3.149-5.905-0.506-3.176-0.169-4.089 2.436-6.7 4.02-4.029 8.219-4.069 12.161-0.129 1.971 1.985 2.891 3.901 2.891 6.035 0 4.198-4.654 8.932-8.784 8.932-1.683 0-4.109-0.973-5.555-2.233zm-491.79-12.575c-3.615-3.632-3.803-7.83-0.525-11.661 1.901-2.214 3.209-2.759 6.546-2.759 8.17 0 11.775 8.644 6.021 14.42-1.981 1.975-3.892 2.898-6.021 2.898s-4.04-0.923-6.021-2.898zm511.16 0.328c-2.545-2.144-3.05-3.285-3.05-6.878 0-3.464 0.505-4.704 2.605-6.362 6.09-4.794 14.23-0.933 14.23 6.749 0 3.166-0.594 4.416-3.05 6.491-1.673 1.419-4.09 2.57-5.367 2.57-1.278 0-3.694-1.151-5.368-2.57zm-526.54-11.305c-2.901-1.171-6.328-5.786-6.328-8.515 0-1.251 1.159-3.642 2.565-5.32 2.07-2.461 3.318-3.056 6.477-3.056 9.497 0 12.309 11.979 3.852 16.365-3.248 1.688-3.634 1.717-6.566 0.526zm544.21-2.917c-3.931-3.95-3.891-8.159 0.129-12.188 2.605-2.61 3.516-2.948 6.685-2.441 4.506 0.724 8.12 4.605 8.12 8.723 0 4.139-4.723 8.804-8.912 8.804-2.13 0-4.041-0.923-6.022-2.898zm-564.48-13.895c-5.814-5.826-2.417-14.967 5.555-14.967 4.11 0 9.378 4.397 9.378 7.821 0 5.201-4.783 10.044-9.932 10.044-1.159 0-3.407-1.31-5.001-2.898zm581.84-0.725c-4.387-4.744-2.694-11.661 3.476-14.222 3.921-1.627 8.457 0.119 10.487 4.04 2.05 3.989 1.793 6.282-1.129 9.756-3.466 4.128-9.239 4.317-12.834 0.426zm-599.14-14.688c-3.664-3.682-3.387-9.478 0.624-12.863 1.673-1.419 4.09-2.57 5.367-2.57 1.278 0 3.694 1.151 5.368 2.57 6.239 5.261 2.713 15.294-5.368 15.294-2.456 0-4.308-0.754-5.991-2.431zm617.87 0.982c-3.358-2.362-4.793-6.907-3.308-10.5 2.565-6.223 8.616-7.692 13.765-3.345 2.427 2.045 3.051 3.345 3.051 6.362 0 6.749-8.131 11.255-13.508 7.483zm-634.56-17.487c-3.476-4.129-3.357-8.208 0.327-11.91 1.594-1.588 3.803-2.898 4.912-2.898 5.189 0 10.022 4.794 10.022 9.955 0 1.161-1.307 3.414-2.892 5.012-4.06 4.069-8.873 4.009-12.369-0.159zm653.31 1.955c-6.318-1.826-8.407-9.706-3.803-14.331 3.843-3.851 8.765-3.613 12.677 0.615 2.931 3.166 3.565 7.444 1.485 10.014-1.367 1.697-5.833 4.854-6.655 4.715-0.287-0.05-1.951-0.507-3.704-1.013zm-668.83-18.668c-3.684-3.702-3.803-7.781-0.327-11.91 3.496-4.168 8.309-4.228 12.369-0.159 4.377 4.387 3.456 10.62-1.971 13.429-4.318 2.243-6.813 1.905-10.071-1.36zm680.87-0.526c-3.506-3.523-3.318-8.744 0.465-12.535 1.594-1.588 3.803-2.898 4.912-2.898 5.189 0 10.022 4.794 10.022 9.954 0 1.162-1.307 3.415-2.892 5.012-3.783 3.792-8.992 3.98-12.507 0.467zm-695.73-17.339c-3.684-3.701-3.803-7.781-0.327-11.909 3.496-4.169 8.309-4.228 12.369-0.159 4.556 4.565 3.655 10.52-2.04 13.468-4.248 2.203-6.754 1.846-10.002-1.4zm710.58-0.526c-5.486-5.508-1.564-14.44 6.358-14.44 3.159 0 4.407 0.595 6.477 3.057 3.357 3.999 3.258 7.314-0.327 10.917-3.783 3.791-8.992 3.98-12.508 0.466zm-724.91-17.864c-3.06-3.077-3.218-8.198-0.376-11.83 1.654-2.104 2.892-2.611 6.348-2.611 3.585 0 4.724 0.507 6.863 3.057 1.406 1.678 2.565 4.099 2.565 5.379 0 1.281-1.159 3.702-2.565 5.38-3.377 4.019-9.161 4.297-12.835 0.625zm742.29 1.727c-3.337-1.221-5.942-4.655-5.942-7.821 0-4.585 0.842-6.233 4.031-7.89 6.596-3.414 12.805 0.149 12.805 7.354 0 3.166-0.594 4.417-3.05 6.491-2.981 2.521-4.853 2.967-7.844 1.866zm-753.99-20.773c-5.368-5.369-2.001-15.244 5.189-15.244 4.407 0 9.031 4.327 9.031 8.446 0 4.665-0.831 6.302-4.03 7.97-4.13 2.133-7.259 1.776-10.19-1.172zm762.49-1.429c-3.476-4.128-3.357-8.207 0.327-11.909 3.248-3.246 5.754-3.603 10.002-1.4 8.368 4.337 5.536 16.366-3.842 16.366-3.169 0-4.417-0.595-6.487-3.057zm-774.88-18.142c-1.1986-1.28-2.4464-3.93-2.7633-5.876-0.4754-2.927-0.1288-3.989 1.9806-6.103 5.6447-5.657 15.509-1.916 15.509 5.885 0 7.543-9.626 11.533-14.726 6.094zm788.39 0.685c-1.634-0.655-4.189-5.628-4.189-8.139 0-1.081 1.149-3.334 2.565-5.012 2.04-2.431 3.337-3.056 6.348-3.056 7.487 0 11.646 9.259 6.486 14.44-2.357 2.352-7.675 3.196-11.21 1.767zm-796.09-19.175c-5.4764-2.213-7.0708-10.242-2.8818-14.45 4.2187-4.218 11.072-2.988 13.904 2.511 2.179 4.228 1.882 5.786-1.872 9.547-3.4162 3.424-5.3473 3.931-9.1501 2.392zm805.22-2.441c-4.734-4.754-2.397-13.418 4.06-15.036 5.764-1.449 12.112 4.714 10.844 10.54-1.436 6.55-10.21 9.19-14.904 4.496zm-815.46-18.689c-5.3972-2.739-6.3974-9.359-2.0796-13.696 7.1501-7.165 18.113 0.953 13.468 9.975-2.3471 4.545-6.853 6.014-11.389 3.721zm825.36-2.153c-4.863-4.883-1.901-13.686 5.07-15.026 2.377-0.457 3.724 0 6.19 2.074 6.338 5.349 2.901 15.383-5.269 15.383-2.456 0-4.308-0.754-5.991-2.431zm-833.82-18.778c-3.1493-1.399-5.427-5.141-5.427-8.922 0-3.087 4.9021-7.583 8.2692-7.583 3.4066 0 8.1304 2.382 8.9425 4.506 3.0799 8.059-4.1296 15.394-11.785 11.999zm844.62-0.615c-2.941-1.191-5.308-4.873-5.308-8.247 0-3.96 4.823-8.635 8.913-8.635 2.129 0 4.041 0.923 6.021 2.898 1.971 1.985 2.892 3.9 2.892 6.034s-0.921 4.05-2.892 6.034c-2.931 2.938-5.724 3.494-9.626 1.916zm-854.09-22.757c-4.0603-4.07-4.0008-8.893 0.1585-12.396 5.9122-4.992 13.785-1.707 13.785 5.736 0 4.814-0.8121 6.431-4.0306 8.109-4.1593 2.153-6.6846 1.776-9.9131-1.449zm859.31-0.149c-3.535-2.799-3.704-9.468-0.317-12.664 5.398-5.072 14.548-1.122 14.548 6.282 0 7.315-8.309 11.046-14.231 6.382zm-866.24-21.686c-1.9707-1.985-2.8917-3.9-2.8917-6.034 0-3.692 4.6248-8.932 7.8928-8.932 5.3477 0 9.9329 4.654 9.9329 10.063 0 3.176-5.2784 7.801-8.9129 7.801-2.1291 0-4.0405-0.923-6.0211-2.898zm873.09-0.327c-1.386-1.231-2.802-3.663-3.139-5.419-0.505-2.66-0.119-3.682 2.406-6.203 6.031-6.044 15.043-2.63 15.043 5.697 0 7.453-8.556 10.996-14.31 5.925zm-875.63-19.592c-5.4764-2.213-7.0708-10.242-2.8818-14.45 2.6342-2.63 6.3281-3.116 9.7744-1.28 3.2978 1.766 4.5654 3.95 4.605 7.939 0.0198 2.859-0.614 4.179-3.0205 6.203-3.1789 2.69-4.9417 3.018-8.4771 1.588zm879.96-2.908c-4.595-4.605-3.654-10.52 2.159-13.527 7.655-3.97 15.676 4.159 11.626 11.781-2.941 5.518-9.22 6.312-13.785 1.746zm-886.8-21.367c-5.0803-5.102-2.2084-13.538 5.12-15.007 2.3371-0.476 3.674-0.019 6.1399 2.055 2.6442 2.233 3.1492 3.344 3.1492 6.967 0 3.464-0.505 4.704-2.6045 6.362-3.6246 2.848-8.7346 2.689-11.805-0.377zm892.6 0.923c-5.516-3.077-6.318-8.963-1.842-13.458 1.981-1.975 3.892-2.898 6.021-2.898 4.189 0 8.913 4.664 8.913 8.803 0 6.342-7.506 10.679-13.092 7.553zm-895.57-23.75c-5.2784-5.3-1.5746-14.441 5.8626-14.441 4.8031 0 6.4173 0.814 8.0909 4.04 3.4364 6.679-0.1386 12.832-7.467 12.832-2.9808 0-4.694-0.645-6.4865-2.431zm896.7-0.467c-1.971-1.985-2.892-3.9-2.892-6.034 0-3.652 4.615-8.932 7.804-8.932 5.189 0 10.022 4.793 10.022 9.954 0 3.275-5.229 7.91-8.913 7.91-2.129 0-4.04-0.923-6.021-2.898zm-898.54-22.985c-3.2482-3.861-3.2482-6.898 0-10.759 2.04-2.431 3.3374-3.057 6.3479-3.057 7.4868 0 11.646 9.26 6.4866 14.441-3.6741 3.672-9.4575 3.394-12.834-0.625zm900.52 0.158c-4.744-4.754-3.555-10.986 2.584-13.557 2.308-0.962 4.081-1.111 5.734-0.486 3.199 1.221 6.616 5.717 6.616 8.714 0 3.553-5.071 8.227-8.913 8.227-2.129 0-4.041-0.923-6.021-2.898zm-899.35-20.484c-5.5062-2.997-6.3182-8.922-1.842-13.418 1.9806-1.975 3.8919-2.898 6.0211-2.898s4.0405 0.923 6.0211 2.898c4.5555 4.565 3.6543 10.52-2.04 13.467-3.5454 1.837-4.7139 1.827-8.1602-0.049zm899.87-1.876c-5.348-5.369-1.565-14.44 6.021-14.44 4.159 0 9.378 4.406 9.378 7.91 0 2.878-2.545 7.592-4.496 8.346-3.664 1.41-8.477 0.606-10.903-1.816zm-900.72-22.301c-4.1098-4.119-4.0009-8.892 0.2674-12.495 2.5748-2.173 3.8226-2.561 6.6846-2.104 3.8523 0.615 7.982 4.536 7.982 7.582 0 5.072-4.8427 9.915-9.9329 9.915-1.1587 0-3.4067-1.31-5.0011-2.898zm902.61 1.916c-3.04-1.231-5.308-4.903-5.308-8.575 0-2.323 0.822-3.861 3.05-5.737 5.189-4.377 11.201-2.878 13.815 3.454 1.119 2.719 1.06 3.563-0.485 6.441-1.04 1.926-3.031 3.742-4.774 4.357-3.436 1.201-3.476 1.201-6.298 0.06zm-901.1-24.276c-5.4567-5.479-1.5647-14.441 6.2687-14.441 6.6252 0 10.794 6.809 7.7641 12.674-1.7529 3.385-3.3275 4.198-8.1702 4.198-2.3173 0-4.2088-0.784-5.8626-2.431zm896.7-0.467c-3.218-3.235-3.595-5.766-1.446-9.934 1.674-3.226 3.288-4.04 8.091-4.04 4.694 0 8.289 3.653 8.289 8.436 0 7.96-9.131 11.354-14.934 5.538zm-891.7-20.077c-3.1195-1.717-4.4564-3.94-4.4564-7.404 0-4.565 0.8417-6.213 4.0305-7.87 6.3678-3.295 12.805 0.158 12.805 6.858 0 4.813-0.812 6.431-4.0306 8.108-3.3076 1.707-5.625 1.796-8.3483 0.308zm890.03-0.516c-1.634-0.655-4.189-5.628-4.189-8.139 0-1.081 1.149-3.334 2.565-5.012 2.04-2.431 3.338-3.056 6.348-3.056 7.487 0 11.646 9.259 6.487 14.44-2.357 2.352-7.675 3.196-11.211 1.767zm-888.95-24.227c-2.9313-3.483-3.1888-5.766-1.0992-9.815 2.862-5.548 11.161-6.034 14.776-0.864 6.3578 9.101-6.546 19.175-13.676 10.679zm884.21 0.626c-2.694-2.71-3.298-8.754-1.159-11.553 1.634-2.133 5.08-3.88 7.655-3.88 3.516 0 7.913 5.23 7.913 9.398 0 7.603-9.052 11.394-14.409 6.035zm-878.94-22.301c-4.5852-4.595-3.3968-10.828 2.6045-13.696 3.4067-1.638 3.7137-1.628 7.1798 0.248 4.0009 2.163 5.7736 5.766 4.7832 9.726-1.7033 6.818-9.4872 8.813-14.568 3.722zm876.01 1.757c-3.208-1.767-4.456-3.97-4.456-7.891 0-2.908 0.654-4.237 3.05-6.262 6.378-5.379 13.785-1.717 13.785 6.828 0 4.039-0.346 4.734-3.218 6.491-3.595 2.203-6.229 2.441-9.161 0.834zm-868.68-22.162c-3.169-2.223-4.3177-6.481-2.7728-10.183 2.446-5.826 10.567-7.305 14.26-2.61 4.5158 5.766 1.1092 14.262-5.724 14.262-2.0203 0-4.6149-0.665-5.7637-1.469zm861.48 0.804c-2.347-0.943-4.397-6.342-3.744-9.846 1.218-6.51 10.31-8.882 14.34-3.751 3.03 3.86 2.763 9.587-0.554 12.207-2.447 1.926-7.121 2.571-10.042 1.39zm-854.79-22.748c-2.4263-2.034-3.0502-3.344-3.0502-6.342 0-5.041 2.5154-7.949 7.4373-8.614 5.9023-0.784 9.3981 2.262 9.3981 8.217 0 8.456-7.4472 12.089-13.785 6.739zm848.98 1.588c-5.14-2.084-6.982-9.736-3.298-13.706 4.436-4.774 11.151-3.88 14.26 1.916 1.684 3.136 1.763 3.93 0.604 6.719-1.257 3.037-5.456 6.123-8.16 5.994-0.713-0.04-2.238-0.456-3.406-0.923zm-841.21-22.757c-8.2988-8.327 2.7333-20.266 11.636-12.595 2.2084 1.906 2.753 3.216 2.753 6.561 0 8.187-8.6256 11.8-14.389 6.034zm833.29 1.915c-3.011-1.221-5.318-4.903-5.278-8.416 0.079-7.096 8.437-10.947 14.082-6.501 4.932 3.891 4.229 11.583-1.327 14.461-3.12 1.617-4.417 1.697-7.477 0.456zm-824.4-22.946c-3.0898-3.315-3.5453-5.706-1.7232-9.14 1.7727-3.335 3.9514-4.576 8.0612-4.615 5.0308-0.04 8.6162 3.453 8.6162 8.406 0 8.089-9.2995 11.413-14.954 5.349zm812.08 0.189c-3.693-3.702-3.872-8.119-0.465-11.543 5.328-5.329 15.399-1.717 15.399 5.538 0 4.238-4.674 8.903-8.912 8.903-2.13 0-4.041-0.923-6.022-2.898zm-801.23-19.77c-6.9421-6.223-1.3963-16.892 7.6053-14.629 4.031 1.012 6.408 4.099 6.378 8.267-0.04 4.069-1.287 6.253-4.605 8.029-3.426 1.826-5.981 1.37-9.3783-1.667zm791.33-0.08c-4.06-4.069-4.001-8.892 0.159-12.395 4.12-3.484 8.19-3.365 11.884 0.327 1.97 1.985 2.891 3.9 2.891 6.034 0 4.268-4.654 8.932-8.913 8.932-2.129 0-4.04-0.923-6.021-2.898zm-780.7-20.008c-1.407-1.677-2.565-3.93-2.565-5.012 0-3.166 2.624-7.334 5.417-8.614 4.05-1.846 6.377-1.42 9.517 1.717 4.06 4.069 4.001 8.892-0.159 12.396-4.327 3.652-8.893 3.473-12.21-0.487zm770.24 1.608c-1.139-0.794-2.625-2.809-3.308-4.466-3.684-8.893 8.843-15.88 14.825-8.267 5.981 7.622-3.644 18.261-11.517 12.733zm-756.88-19.978c-6.239-5.26-2.713-15.294 5.368-15.294s11.606 10.034 5.367 15.294c-1.674 1.409-4.09 2.57-5.367 2.57-1.278 0-3.694-1.161-5.368-2.57zm743.1-0.854c-3.198-3.216-3.149-7.473 0.139-11.384 3.496-4.168 8.309-4.227 12.369-0.158 3.961 3.979 3.555 9.21-0.98 12.703-2.793 2.144-8.824 1.539-11.528-1.161zm-730.39-18.331c-6.011-6.024-2.417-14.966 6.021-14.966 5.466 0 8.923 3.364 8.883 8.634-0.069 8.496-8.972 12.277-14.904 6.332zm716.99 0c-6.011-6.024-2.416-14.966 6.021-14.966 5.517 0 8.913 3.354 8.913 8.803 0 3.166-0.594 4.416-3.05 6.491-4.12 3.483-8.19 3.364-11.884-0.328zm-15.369-19.333c-4.189-4.198-4.437-8.099-0.802-12.426 2.129-2.551 3.277-3.057 6.843-3.057 3.565 0 4.713 0.506 6.843 3.057 3.634 4.327 3.387 8.228-0.803 12.426-2.168 2.173-4.317 3.374-6.04 3.374-1.724 0-3.873-1.201-6.041-3.374zm-686.24-0.05c-1.782-1.796-2.426-3.513-2.426-6.5 0-5.529 3.347-8.933 8.784-8.933 7.754 0 11.894 9.528 6.615 15.235-3.317 3.592-9.487 3.682-12.973 0.198zm16.974-19.482c-3.476-4.129-3.357-8.208 0.327-11.91 6.011-6.024 14.934-2.421 14.934 6.035 0 5.528-3.347 8.932-8.784 8.932-3.159 0-4.407-0.596-6.477-3.057zm651.53-0.109c-2.169-2.581-2.555-3.831-2.099-6.699 1.465-9.26 13.498-11.017 17.043-2.491 2 4.783 1.783 6.183-1.485 9.458-4.209 4.208-9.795 4.099-13.459-0.268zm-633.38-16.604c-1.971-1.985-2.892-3.901-2.892-6.034 0-4.268 4.655-8.933 8.913-8.933s8.913 4.665 8.913 8.933c0 2.133-0.921 4.049-2.892 6.034-1.981 1.975-3.892 2.898-6.021 2.898s-4.041-0.923-6.021-2.898zm616.97 0c-1.971-1.985-2.892-3.901-2.892-6.034 0-6.203 7.526-10.808 12.933-7.91 2.278 1.22 4.893 5.994 4.893 8.932 0 3.275-5.229 7.91-8.913 7.91-2.129 0-4.041-0.923-6.021-2.898zm-599.14-15.88c-1.971-1.985-2.892-3.9-2.892-6.034 0-3.652 4.615-8.932 7.804-8.932 5.189 0 10.021 4.793 10.021 9.954 0 3.275-5.228 7.91-8.912 7.91-2.13 0-4.041-0.923-6.021-2.898zm581.32 0c-1.971-1.985-2.892-3.9-2.892-6.034 0-3.692 4.625-8.932 7.893-8.932 2.872 0 7.576 2.55 8.329 4.506 0.336 0.893 0.614 3.324 0.614 5.428 0 7.504-8.438 10.54-13.944 5.032zm-563.38-13.944c-4.436-4.446-3.644-11.076 1.694-14.202 2.733-1.598 3.703-1.707 6.694-0.715 3.595 1.191 6.437 5.082 6.437 8.803 0 1.082-1.158 3.335-2.565 5.012-2.06 2.452-3.327 3.057-6.437 3.057-2.535 0-4.545-0.675-5.823-1.955zm545.09-0.476c-3.664-3.682-3.387-9.478 0.624-12.863 1.673-1.409 4.09-2.57 5.367-2.57 1.278 0 3.694 1.161 5.368 2.57 2.545 2.144 3.05 3.285 3.05 6.878 0 3.464-0.505 4.704-2.605 6.362-3.624 2.848-8.734 2.689-11.804-0.377zm-526.22-13.041c-6.012-5.072-2.734-15.294 4.902-15.294 4.228 0 8.883 4.684 8.883 8.932 0 3.89-4.665 8.932-8.269 8.932-1.357 0-3.843-1.161-5.516-2.57zm508-0.209c-4.021-4.029-4.06-8.237-0.129-12.187 4.595-4.605 10.498-3.663 13.498 2.163 2.961 5.737-0.119 11.384-6.813 12.476-3.031 0.486-3.981 0.129-6.556-2.452zm-489.81-12.555c-7.675-7.701 3.228-19.134 11.804-12.386 3.536 2.799 3.704 9.469 0.317 12.664-3.238 3.037-8.932 2.908-12.121-0.278zm470.4 0c-1.337-1.349-2.427-3.602-2.427-5.031 0-8.714 8.943-12.506 15.053-6.382 2.575 2.58 2.932 3.533 2.446 6.57-0.851 5.26-3.149 7.275-8.289 7.275-3.297 0-4.931-0.586-6.783-2.432zm-450.64-11.86c-3.11-3.116-3.526-4.049-2.991-6.818 1.406-7.3541 9.368-9.9643 14.557-4.7736 5.18 5.2006 2.575 13.18-4.763 14.59-2.763 0.536-3.694 0.119-6.803-2.998zm433.11 2.303c-2.773-1.618-4.912-6.65-4.199-9.905 0.802-3.6621 4.843-6.8876 8.616-6.8876 4.05 0 8.705 4.7836 8.705 8.9326 0 6.242-7.843 10.937-13.122 7.86zm-413.38-12.406c-2.179-2.1735-2.466-3.1561-1.991-6.6893 0.664-4.9921 3.516-7.6222 8.259-7.6222 7.556 0 11.458 10.232 5.655 14.817-3.694 2.898-8.735 2.69-11.923-0.5059zm391.76-0.3375c-3.962-3.9798-3.556-9.2101 0.98-12.704 2.694-2.0643 8.408-1.5383 10.794 1.0123 3.536 3.7615 3.774 7.7512 0.684 11.433-3.585 4.2674-8.349 4.3664-12.458 0.258zm-369.56-7.1061c-2.158-1.2604-4.704-6.0739-4.704-8.8826 0-3.2751 5.229-7.91 8.913-7.91 4.259 0 8.913 4.6647 8.913 8.9323 0 6.2426-7.843 10.937-13.122 7.8603zm349.58-0.8932c-4.981-3.9302-4.219-11.582 1.446-14.52 5.902-3.0568 12.666 1.3398 12.666 8.2276 0 6.9274-8.497 10.719-14.112 6.2922zm-330.35-9.2597c-4.634-4.9525-1.148-14.579 5.279-14.579 3.278 0 7.992 2.4216 8.794 4.5058 1.188 3.1164 0.594 7.1656-1.436 9.756-2.793 3.5431-9.448 3.7118-12.637 0.3176zm310.03 1.6276c-1.674-0.6749-4.189-5.6571-4.189-8.297 0-1.1612 1.307-3.4141 2.891-5.012 3.942-3.9401 8.141-3.9004 12.161 0.129 2.605 2.6102 2.942 3.5134 2.427 6.6992-0.317 2.0147-1.535 4.4562-2.704 5.409-2.01 1.6475-7.734 2.2231-10.586 1.0718zm-288.96-8.7139c-5.456-5.4784-1.564-14.44 6.269-14.44 5.041 0 8.536 3.5233 8.536 8.5948 0 7.3343-9.546 11.106-14.805 5.8456zm266.4 0c-5.13-5.1509-1.584-14.44 5.516-14.44 4.16 0 6.586 1.4589 8.448 5.0517 1.257 2.4514 1.337 3.6523 0.426 6.4312-1.328 4.0095-3.467 5.3891-8.379 5.3891-2.475 0-4.327-0.7444-6.011-2.4316zm-244.61-5.9548c-2.693-2.7094-3.298-8.7536-1.158-11.552 3.485-4.5456 8.704-4.9525 12.676-0.9826 5.803 5.8159 2.416 14.966-5.526 14.966-2.456 0-4.308-0.7543-5.992-2.4316zm223.29-0.4665c-3.209-3.2255-3.595-5.7662-1.486-9.8552 3.11-6.0144 11.874-6.0838 14.954-0.1191 2.09 4.0493 1.832 6.332-1.099 9.8155-3.496 4.1684-8.309 4.228-12.369 0.1588zm-201.03-4.9623c-3.605-3.6225-3.803-7.8405-0.545-11.632 5.041-5.8853 14.488-2.0842 14.488 5.8159 0 8.0887-8.239 11.523-13.943 5.8159zm178.92-0.1588c-4.12-4.9028-3.139-10.461 2.367-13.309 3.981-2.0644 5.338-1.8957 8.853 1.0718 2.545 2.1438 3.05 3.2851 3.05 6.8779 0 3.4637-0.505 4.7043-2.604 6.3617-3.932 3.0965-8.556 2.6995-11.666-1.0024zm-157.13-3.8111c-1.971-1.9849-2.892-3.9004-2.892-6.0342 0-4.2676 4.654-8.9322 8.913-8.9322 4.258 0 8.913 4.6646 8.913 8.9322 0 2.1338-0.921 4.0493-2.892 6.0342-3.892 3.9004-8.15 3.9004-12.042 0zm135.21 0.4665c-1.644-1.6575-2.426-3.5531-2.426-5.8755 0-4.8432 0.812-6.4312 4.15-8.168 8.853-4.5852 16.855 6.5007 9.794 13.577-3.694 3.7019-8.101 3.8806-11.518 0.4665zm-112.9-2.9774c-3.664-3.6821-3.387-9.4781 0.624-12.862 1.674-1.4093 3.655-2.5705 4.407-2.5705 2.773 0 6.596 2.4514 7.962 5.1113 2.12 4.0889 1.733 6.6297-1.475 9.8552-3.694 3.7019-8.101 3.8806-11.518 0.4665zm90.694 0.4763c-5.903-5.9151-2.229-15.244 6.001-15.244 7.09 0 10.586 9.5674 5.407 14.768-3.07 3.0667-8.596 3.295-11.408 0.4763zm-67.867-2.4216c-4.753-4.7638-3.991-10.153 1.991-14.083 3.02-1.985 6.684-1.2208 9.982 2.0841 3.367 3.3645 3.169 7.8108-0.505 11.493-3.674 3.682-8.111 3.8805-11.468 0.5061zm24.56 1.3895c-2.446-0.9925-5.249-5.7663-5.249-8.9521 0-3.1164 5.229-7.91 8.616-7.91 8.556 0 11.824 12.456 4.278 16.366-3.248 1.6773-4.496 1.7666-7.645 0.4963zm20.42-1.8956c-3.585-3.6027-3.684-6.9176-0.326-10.917 2.04-2.4316 3.337-3.0568 6.347-3.0568 3.011 0 4.308 0.6252 6.348 3.0568 1.416 1.6773 2.565 4.1684 2.565 5.528 0 3.6126-5.031 8.2872-8.913 8.2872-2.129 0-4.04-0.923-6.021-2.898zm-42.504 857.35c-19.361-1.409-47.139-5.379-48.941-6.987-0.921-0.824 3-25.437 4.416-27.739 0.555-0.913 4.199-0.695 15.449 0.933 20.391 2.927 19.173 3.106 19.173-2.809 0-5.538 0.713-5.161-12.379-6.55-3.268-0.348-11.24-1.707-17.717-3.018-6.477-1.32-12.3-2.391-12.933-2.391-0.713 0-2.833 7.493-5.417 19.105-2.328 10.51-4.378 19.254-4.546 19.432-0.168 0.169-2.347 0.01-4.853-0.367-3.287-0.496-4.535-1.131-4.515-2.302 0.059-3.613 11.596-47.272 12.448-47.113 0.505 0.099 9.378 1.747 19.717 3.682 10.349 1.935 23.629 4.059 29.521 4.734l10.725 1.221-0.693 14.45c-0.386 7.95-0.822 14.599-0.98 14.778-0.287 0.338-24.659-2.342-31.334-3.434-3.604-0.595-3.654-0.556-4.298 3.236-0.356 2.114-0.723 4.495-0.812 5.309-0.119 1.142 2.565 1.846 12.221 3.186 12.943 1.806 36.463 3.633 37.206 2.888 0.228-0.238 0.426-7.215 0.426-15.512 0-8.287 0.287-17.15 0.634-19.681l0.623-4.605h8.676l-0.258 25.06-0.267 25.06-4.952 0.129c-2.723 0.069-10.071-0.248-16.34-0.695zm37.246-15.562c-0.357-9.14-0.911-20.464-1.238-25.169l-0.594-8.535 10.764-0.715c13.35-0.873 31.185-3.046 41.97-5.091 4.506-0.854 8.507-1.191 8.903-0.744 1.119 1.26 6.219 25.933 5.664 27.392-0.505 1.31-23.727 5.667-30.214 5.667-3.476 0-3.872 1.24-2.535 7.94l0.643 3.225 6.081-0.625c6.239-0.645 41.009-7.076 41.633-7.712 0.188-0.188-1.644-8.803-4.07-19.124-2.427-10.332-4.199-19.324-3.952-19.979 0.486-1.25 7.368-2.938 8.279-2.025 0.297 0.298 3.14 11.136 6.328 24.078 3.991 16.256 5.447 23.76 4.685 24.226-3.882 2.412-49.516 10.659-61.261 11.076l-7.428 0.258-1.049-14.391c-0.575-7.91-1.02-14.46-0.991-14.54 0.03-0.089 7.408-1.2 16.4-2.481l16.34-2.332-0.297-4.466c-0.158-2.452-0.604-4.744-0.99-5.101-0.377-0.348-5.596 0.178-11.587 1.161-5.991 0.992-15.944 2.124-22.124 2.521l-11.23 0.704 0.535 4.079c0.307 2.243 0.842 11.275 1.208 20.058l0.654 15.979-3.209 0.645c-7.031 1.409-6.605 2.352-7.318-15.979zm-139.25-4.664c-15.449-5.211-28.204-10.302-41.524-16.565-5.684-2.669-10.477-5.002-10.655-5.18-0.456-0.457 11.359-25.199 12.29-25.745 0.425-0.248 6.793 2.124 14.141 5.27 18.737 8.009 17.321 7.831 18.826 2.441 0.733-2.64 0.901-4.863 0.386-5.309-0.495-0.417-5.347-2.69-10.794-5.042s-13.825-6.243-18.608-8.644c-4.793-2.392-9.101-4.119-9.576-3.831-0.476 0.297-4.952 8.128-9.943 17.408-5.001 9.269-9.289 16.862-9.537 16.862-1.188 0-8.289-4.109-8.289-4.794 0-0.834 22.48-40.83 23.669-42.101 0.376-0.407 7.348 2.561 15.498 6.59 12.835 6.352 21.757 10.372 37.246 16.793l3.624 1.499-2.317 7.979c-2.535 8.764-6.487 19.988-7.021 19.988-0.684 0-19.866-7.84-26.234-10.718l-6.546-2.958-2.178 4.496c-1.199 2.481-1.823 4.843-1.387 5.27 1.258 1.191 20.401 9.161 33.324 13.865 8.547 3.116 11.914 3.95 12.449 3.087 0.406-0.646 3.139-9.24 6.09-19.086l5.348-17.914 3.486 0.655c1.921 0.367 3.981 0.953 4.595 1.31 0.762 0.447-1.001 7.91-5.615 23.849-3.704 12.764-7.101 23.542-7.547 23.949-0.455 0.417-6.387-1.122-13.201-3.424zm248.08 1.191c-3.061-8.704-13.191-45.952-12.637-46.428 0.416-0.357 6.546-2.809 13.627-5.449s19.46-7.811 27.511-11.493l14.647-6.689 6.476 12.952c3.555 7.126 6.101 13.309 5.655 13.756-0.446 0.446-7.279 3.781-15.172 7.403-7.892 3.633-14.538 6.779-14.745 6.987-0.218 0.209 0.386 2.442 1.346 4.953 2.13 5.597 1.496 5.697 20.619-3.156 15.577-7.206 24.47-12.009 24.47-13.23 0-0.447-4.01-8.406-8.912-17.696-4.902-9.289-8.913-17.15-8.913-17.467 0-0.318 1.743-1.469 3.862-2.551l3.872-1.975 8.893 16.594c4.892 9.131 10.111 19.016 11.587 21.974l2.684 5.379-2.328 1.816c-3.664 2.878-34.75 18.073-48.169 23.561-12.101 4.953-12.171 4.963-12.983 2.779-4.971-13.319-8.932-25.973-8.299-26.519 0.426-0.377 2.783-1.449 5.229-2.391 9.785-3.762 24.758-10.809 24.758-11.662 0-0.496-0.901-2.66-1.99-4.814l-1.991-3.91-5.684 2.571c-3.13 1.419-12.033 5.131-19.797 8.257-7.764 3.116-14.359 5.925-14.656 6.223-0.297 0.297 1.931 8.773 4.951 18.837 3.021 10.064 5.497 18.758 5.497 19.313 0 0.556-1.724 1.529-3.833 2.164-4.773 1.439-5.041 1.429-5.575-0.089zm-347.6-50.11c-16.766-11.463-42.782-32.305-43.911-35.183-0.188-0.477 3.575-5.211 8.358-10.511 4.784-5.309 9.012-10.014 9.379-10.47 0.376-0.447 4.199 2.024 8.497 5.508 11.081 8.962 19.172 15.016 19.479 14.56 0.139-0.209 1.466-2.025 2.931-4.04l2.684-3.642-10.151-8.367c-5.575-4.605-13.23-11.175-17.003-14.609l-6.863-6.242-14.112 14.4-14.112 14.411-3.248-3.355-3.239-3.354 5.388-5.697c2.971-3.136 10.705-11.135 17.201-17.775l11.805-12.088 11.646 10.718c6.407 5.896 16.697 14.639 22.866 19.443 6.17 4.803 11.597 9.051 12.053 9.448 0.891 0.764-14.855 24.415-15.994 24.018-1.208-0.427-13.34-9.409-20.915-15.492l-7.359-5.916-3.228 3.851c-3.832 4.575-4.199 3.96 7.952 13.666 15.053 12.029 27.482 20.753 28.303 19.86 0.436-0.467 5.338-7.761 10.894-16.227 5.566-8.466 10.27-15.542 10.458-15.741 0.515-0.555 7.378 3.881 7.378 4.764 0 0.794-24.372 39.778-25.57 40.88-0.367 0.347-5.576-2.719-11.567-6.818zm202.02 7.017c-82.949-7.027-157.49-41.019-217.24-99.079-46.664-45.336-80.85-104.44-96.665-167.13-11.389-45.137-13.033-100.4-4.348-145.99 7.309-38.409 21.966-78.664 40.267-110.66 47.436-82.901 125.95-143.1 216.59-166.06 14.755-3.742 27.649-6.163 49.515-9.309 11.844-1.707 62.053-1.707 74.769 0 43.277 5.806 73.402 14.152 107.61 29.823 35.206 16.118 68.342 38.945 96.704 66.615 42.574 41.535 68.639 82.067 88.158 137.06 13.696 38.597 21.53 87.477 20.113 125.48-2.188 58.417-17.637 112.3-46.643 162.65-29.71 51.589-73.155 96.161-123.57 126.83-45.456 27.641-97.992 44.969-149.8 49.405-10.894 0.933-46.03 1.172-55.458 0.378zm68.758-12.724c119.98-16.644 221.27-95.198 269.91-209.32 11.587-27.174 19.103-56.323 23.461-90.91 1.921-15.245 1.614-59.469-0.525-75.924-9.933-76.321-41.841-143.2-93.684-196.37-46.574-47.778-99.17-78.118-162.89-93.978-69.391-17.268-145.64-10.956-211.99 17.567-83.216 35.759-151.98 107.33-182.56 190-14.963 40.473-21.47 72.807-22.638 112.56-2.347 79.983 21.975 153.42 72.065 217.54 31.571 40.403 72.6 74.038 117.08 95.942 18.36 9.041 23.896 11.354 42.286 17.666 24.372 8.356 51.824 14.281 77.245 16.683 13.914 1.32 58.785 0.407 72.224-1.449zm172.53 4.724c-2.159-3.692-7.755-13.16-12.439-21.02-4.674-7.871-8.507-14.788-8.507-15.384 0-0.595 2.12-2.421 4.704-4.049 6.883-4.347 26.412-19.254 34.414-26.271l6.932-6.074 9.656 10.163c5.308 5.588 9.655 10.669 9.655 11.295 0 0.913-16.597 15.711-23.064 20.554-1.515 1.141-1.436 1.588 1.05 5.448 1.485 2.323 2.921 4.209 3.198 4.199 1.684-0.07 35.652-29.318 35.652-30.707 0-0.437-6.091-7.126-13.528-14.868l-13.538-14.073 3.14-3.156 3.149-3.146 17.568 17.686 17.568 17.676-9.408 8.962c-14.904 14.202-40.91 35.57-43.267 35.54-0.762-0.01-16.152-23.005-16.152-24.147 0-0.298 3.229-2.987 7.18-5.984 3.951-2.988 9.606-7.623 12.557-10.292l5.388-4.853-3.457-3.772-3.456-3.781-5.882 5.19c-3.239 2.859-10.686 8.784-16.539 13.161-5.852 4.376-10.646 8.187-10.646 8.475s4.497 8.059 9.993 17.279c10.636 17.835 10.586 17.627 4.991 20.912l-2.991 1.766-3.921-6.729zm-521.2-66.555c-10.497-11.016-37.483-46.259-37.483-48.948 0-0.675 20.658-15.007 23.867-16.545 0.316-0.159 1.822 1.628 3.337 3.97 1.505 2.332 5.863 8.366 9.665 13.388l6.913 9.151 3.852-3.107c2.129-1.717 3.862-3.275 3.862-3.483 0-0.209-3.723-5.608-8.279-11.989-4.545-6.392-9.962-14.192-12.022-17.329-2.06-3.136-4.209-5.706-4.764-5.706-0.564 0-8.021 4.466-16.577 9.924-8.547 5.459-15.935 9.925-16.42 9.915-0.475 0-1.842-1.727-3.04-3.841l-2.189-3.831 10.111-6.262c5.556-3.444 14.657-9.31 20.223-13.031 5.565-3.722 10.497-6.769 10.962-6.769 0.476 0 3.942 5.022 7.715 11.165 3.763 6.134 11.488 17.388 17.152 25.011l10.29 13.854-3.853 3.345c-2.129 1.836-7.071 5.995-10.982 9.25l-7.131 5.905-5.159-6.223c-2.842-3.424-7.606-9.458-10.577-13.418s-5.625-7.205-5.892-7.205c-0.258 0-2.218 1.379-4.348 3.076l-3.882 3.077 4.635 6.6c5.318 7.573 22.817 29.605 24.203 30.469 1.04 0.645 2.625-0.625 19.133-15.324l11.577-10.322 2.931 2.809c1.605 1.548 2.922 3.116 2.922 3.494 0 0.377-6.348 6.431-14.112 13.458-7.764 7.026-15.924 14.43-18.143 16.465l-4.04 3.692-4.457-4.685zm590.54-13.686c-9.894-9.2-17.985-17.14-17.985-17.626 0-0.487 2.595-3.851 5.774-7.474 8.319-9.478 16.627-20.206 23.391-30.191 3.278-4.843 6.417-8.505 7.081-8.247 0.97 0.367 21.638 14.788 23.094 16.098 0.456 0.417-4.565 7.9-12.488 18.579-2.891 3.91-5.258 7.404-5.258 7.761 0 0.367 1.753 2.064 3.902 3.762l3.891 3.096 7.715-10.203c9.111-12.058 18.331-26.508 17.638-27.64-0.278-0.437-7.735-5.369-16.578-10.967-8.844-5.587-16.212-10.262-16.39-10.391s0.822-2.044 2.228-4.267l2.545-4.05 20.549 12.982c11.3 7.136 20.767 13.19 21.025 13.448 0.703 0.675-3.021 6.967-13.389 22.658-8.398 12.694-23.025 32.136-24.223 32.186-1.407 0.069-21.272-18.689-21.173-19.989 0.089-1.211 6.684-10.55 16.429-23.283 0.604-0.784-0.515-2.124-3.476-4.158l-4.367-3.008-5.269 7.563c-2.892 4.158-8.526 11.463-12.517 16.227s-7.259 8.853-7.259 9.081 6.466 6.332 14.359 13.567 14.35 13.448 14.33 13.815c-0.01 0.377-1.278 2.194-2.813 4.05l-2.792 3.364-17.974-16.743zm-653.21-77.71c-5.674-11.325-15.27-33.774-19.182-44.89l-3.011-8.545 12.558-4.565c6.902-2.511 13.141-4.695 13.864-4.854 0.852-0.188 2.812 3.563 5.566 10.63 2.337 6.004 4.961 12.604 5.832 14.678l1.575 3.762 4.239-2.144c2.337-1.181 4.397-2.283 4.575-2.441 0.178-0.159-2.109-6.908-5.08-15.007-2.971-8.098-6.061-16.743-6.873-19.194-0.852-2.61-2.03-4.416-2.842-4.337-0.753 0.069-9.359 2.65-19.104 5.746-9.754 3.097-18.043 5.28-18.439 4.844-0.832-0.943-3.08-7.454-2.694-7.831 0.565-0.576 47.476-15.423 47.743-15.115 0.149 0.168 2.159 6.352 4.457 13.716 2.297 7.364 6.823 19.819 10.071 27.66 3.238 7.84 5.764 14.391 5.605 14.549-0.723 0.705-25.896 12.367-26.144 12.109-0.159-0.159-2.961-6.68-6.219-14.5-3.268-7.821-6.18-14.471-6.487-14.768-0.673-0.675-8.388 1.776-9.061 2.868-0.703 1.131 5.783 18.003 12.052 31.382 2.991 6.362 5.585 11.721 5.764 11.909 0.188 0.179 7.655-3.682 16.607-8.594 8.943-4.913 16.944-9.201 17.776-9.518 1.07-0.407 2.05 0.605 3.328 3.444 0.99 2.213 1.624 4.178 1.406 4.367-1.06 0.933-38.464 21.308-42.702 23.263-0.377 0.179-2.714-3.702-5.18-8.624zm711.98-2.452c-10.894-6.113-20.628-11.592-21.629-12.177-1.713-0.993-1.584-1.529 2.1-8.903 5.031-10.054 12.983-28.494 16.528-38.369 1.525-4.228 3.05-7.662 3.377-7.632 0.337 0.03 6.408 2.174 13.488 4.754 11.577 4.228 12.855 4.923 12.637 6.918-0.139 1.23-2.476 7.86-5.199 14.748-2.734 6.887-4.962 12.902-4.962 13.378 0 0.973 8.665 5.409 9.25 4.744 0.931-1.042 10.586-26.042 13.141-33.982 2.218-6.898 2.535-8.903 1.525-9.538-0.703-0.436-9.071-3.176-18.598-6.084-9.517-2.907-17.528-5.647-17.796-6.083-0.822-1.33 1.852-8.873 2.991-8.436 1.06 0.407 33.532 10.52 42.316 13.18l4.615 1.399-3.476 11.155c-4.526 14.5-12.122 34.935-16.637 44.711l-3.575 7.741-9.111-4.892c-5.001-2.69-10.973-5.836-13.261-6.997l-4.159-2.104 2.535-5.707c1.397-3.146 3.783-9.071 5.308-13.16s3.06-8.158 3.407-9.042c0.495-1.23-0.376-1.875-3.922-2.868-2.654-0.744-4.882-0.913-5.328-0.397-0.425 0.496-2.475 5.141-4.555 10.322-2.09 5.18-5.516 13.18-7.615 17.775-2.09 4.585-3.694 8.446-3.556 8.575 0.802 0.705 28.898 16.554 31.879 17.983 1.96 0.933 3.436 1.956 3.277 2.253-0.158 0.308-1.138 2.233-2.178 4.278-1.04 2.044-2.139 3.692-2.456 3.642-0.307-0.039-9.468-5.071-20.361-11.185zm55.458-88.747c-3.13-0.536-45.525-10.321-45.793-10.569-0.128-0.129 1.06-8.01 2.645-17.518 1.594-9.517 3.446-22.568 4.119-29.009l1.218-11.712 5.041 0.516c2.773 0.288 9.388 0.794 14.696 1.142l9.656 0.615-0.03 4.119c-0.02 2.273-0.683 8.595-1.465 14.053-2.13 14.689-2.298 13.964 3.555 15.126 3.634 0.724 5.13 0.684 5.377-0.12 1.04-3.354 4.278-44.115 3.565-44.829-0.237-0.249-3.862-0.447-8.041-0.447s-13.023-0.288-19.638-0.645l-12.042-0.655v-4.248c0-2.342 0.336-4.466 0.742-4.714 0.882-0.546 48.991 1.221 49.586 1.816 1.228 1.221-4.803 63.389-6.289 64.878-0.564 0.566-26.818-3.97-28.303-4.893-0.654-0.397-0.287-5.627 1.04-15.155 1.119-7.989 2.04-14.758 2.04-15.036s-2.397-0.506-5.318-0.506h-5.318l-0.684 7.195c-0.366 3.96-1.544 12.962-2.604 20.008-1.06 7.057-1.812 12.883-1.674 12.972 0.139 0.079 5.813 1.34 12.627 2.819 6.813 1.469 15.27 3.453 18.816 4.416 6.189 1.687 6.427 1.866 6.1 4.625-0.554 4.625-1.485 6.114-3.624 5.756zm-801.01-1.856c-2.5055-8.485-7.2689-40.165-8.1998-54.546l-0.6536-10.024 14.063-1.25c7.734-0.685 14.221-1.082 14.419-0.883 0.198 0.198 1.238 6.967 2.307 15.045 1.07 8.069 2.189 14.937 2.506 15.245 0.307 0.307 2.634 0.258 5.169-0.129 4.338-0.645 4.565-0.844 4.07-3.345-0.287-1.459-1.317-10.848-2.287-20.862l-1.763-18.211-6.972 0.565c-3.833 0.308-12.765 0.685-19.846 0.844l-12.874 0.278-0.5942-9.21 15.647-0.616c8.606-0.337 19.925-0.863 25.154-1.171l9.507-0.556 0.683 14.709c0.376 8.088 1.515 21.189 2.525 29.099 1.011 7.91 1.634 14.599 1.387 14.857-0.624 0.655-27.481 5.896-27.927 5.449-0.198-0.189-1.396-7.186-2.674-15.542-1.267-8.347-2.327-15.294-2.357-15.433s-2.337-0.248-5.13-0.248h-5.0602l0.6635 6.699c0.8717 8.783 4.3077 30.499 5.5757 35.233 0.544 2.044 1.535 3.721 2.198 3.712 0.654 0 8.745-1.787 17.965-3.97 9.219-2.174 17.33-3.96 18.033-3.96 1.248 0 3.912 7.681 2.981 8.614-0.485 0.487-39.197 9.895-44.861 10.908-2.466 0.436-3.2286 0.168-3.6544-1.301zm763.87-102.78c0-6.213-3.189-35.163-4.991-45.336-1.1-6.223-1.882-11.403-1.724-11.522 0.694-0.526 28.601-5.707 28.928-5.36 0.198 0.209 1.346 6.422 2.535 13.786 1.188 7.364 2.357 14.4 2.594 15.631 0.377 1.965 1.02 2.233 5.497 2.233h5.08l-0.664-7.195c-0.752-8.248-3-21.954-5.238-31.868l-1.525-6.819-3.12 0.546c-1.713 0.308-10.577 2.293-19.697 4.426l-16.578 3.881-0.991-3.573c-0.544-1.955-0.99-4.059-0.99-4.674-0.01-0.943 43.713-12.327 47.258-12.297 0.673 0.01 1.495 1.24 1.842 2.739 0.337 1.499 1.436 6.084 2.436 10.173 2.298 9.389 5.437 28.186 6.952 41.555 0.901 7.999 0.892 10.45-0.039 11.026-0.654 0.407-6.15 1.052-12.211 1.439s-12.141 0.923-13.528 1.201l-2.515 0.496-2.169-15.552c-1.188-8.555-2.307-15.701-2.486-15.879-0.178-0.179-2.475 0.139-5.11 0.694l-4.793 1.023 0.614 4.118c1.347 9.052 3.526 29.149 3.536 32.593 0.01 2.015 0.445 3.94 0.98 4.268 0.545 0.327 9.458 0.069 19.826-0.586 10.359-0.655 19.014-1.012 19.232-0.794 0.218 0.219 0.693 2.462 1.07 4.982l0.683 4.576-13.221 0.655c-7.269 0.357-18.667 0.923-25.342 1.26l-12.131 0.606v-2.452zm-751.16-0.536c-10.893-0.794-20.43-1.627-21.192-1.866-1.1389-0.357-1.2676-2.62-0.7329-12.644 0.9706-18.261 5.2883-50.288 7.0016-52.015 0.5347-0.526 27.313 4.416 28.086 5.191 0.267 0.268-0.377 7.185-1.446 15.363l-1.941 14.877 4.208 0.635c2.308 0.348 4.605 0.378 5.111 0.06 0.505-0.308 1.208-3.365 1.554-6.799 0.347-3.424 1.793-12.177 3.219-19.452 1.416-7.265 2.416-13.339 2.228-13.498-0.188-0.158-8.923-2.411-19.41-5.012-11.884-2.947-19.064-5.19-19.064-5.954 0-2.253 2.1687-7.474 3.0997-7.474 2.228 0 45.02 11.126 45.812 11.92 0.525 0.506-0.178 6.133-1.693 13.577-1.417 6.997-3.556 19.641-4.744 28.097s-2.258 15.502-2.367 15.661c-0.119 0.149-5.962-0.407-12.983-1.231-7.021-0.833-13.32-1.518-14.003-1.518-1.693-0.01-1.594-6.332 0.307-19.969 0.852-6.093 1.178-11.413 0.743-11.81-0.446-0.407-2.644-1.002-4.902-1.35-4.011-0.605-4.11-0.546-4.665 2.61-1.881 10.62-5.1692 41.337-4.4463 41.505 0.1882 0.04 9.0313 0.824 19.648 1.737l19.311 1.658 0.297 4.714 0.307 4.714-3.773-0.149c-2.07-0.079-12.676-0.794-23.57-1.578zm731.93-103.42c-2.466-7.513-7.16-20.048-10.448-27.849s-5.982-14.51-5.982-14.927c0-0.407 0.555-0.972 1.238-1.25 0.684-0.278 6.477-2.987 12.884-6.024l11.636-5.519 3.338 6.67c1.832 3.662 5.001 10.57 7.041 15.343 2.04 4.774 3.981 8.685 4.308 8.685 0.317 0 2.446-0.715 4.714-1.578l4.129-1.579-3.416-8.594c-5.071-12.734-15.36-33.903-16.469-33.903-0.535 0-8.695 4.029-18.123 8.962l-17.152 8.962-1.981-3.9c-1.535-3.018-1.713-4.129-0.782-4.874 0.663-0.535 7.229-4.218 14.577-8.177 7.348-3.951 16.42-8.923 20.143-11.037 3.734-2.104 7.2-3.573 7.715-3.255 3.228 2.005 29.095 60.134 27.352 61.483-0.218 0.169-16.32 6.471-23.827 9.33-3.139 1.191-2.04 2.997-10.467-17.299-5.645-13.597-4.883-12.843-10.458-10.451-2.902 1.251-4.526 2.511-4.199 3.265 0.277 0.675 2.268 5.251 4.407 10.163 2.139 4.913 5.367 13.17 7.17 18.361 1.802 5.191 3.565 9.756 3.902 10.163 0.336 0.397 8.566-1.727 18.281-4.714 9.715-2.998 18.261-5.449 18.994-5.449 1.298 0 4.15 7.493 3.209 8.446-0.584 0.586-25.738 8.307-38.315 11.751l-8.943 2.461-4.476-13.666zm-705.69 8.436c-7.358-2.313-17.489-5.498-22.53-7.076-5.189-1.628-9.161-3.405-9.161-4.119 0-5.766 21.065-59.826 23.313-59.826 0.713 0 25.332 11.701 25.976 12.346 0.217 0.208-0.169 1.429-0.852 2.7-0.683 1.28-3.199 7.016-5.595 12.743-2.397 5.726-4.566 10.907-4.833 11.512-0.416 0.963 6.635 4.367 9.071 4.367 0.525 0 2.03-2.788 3.347-6.203 1.308-3.414 4.992-11.741 8.17-18.519 3.189-6.769 5.675-12.396 5.536-12.495-0.138-0.1-8.15-4.327-17.806-9.379l-17.538-9.2 2.189-3.851c1.208-2.124 2.574-3.861 3.03-3.861 0.455-0.01 3.575 1.489 6.932 3.325s12.448 6.788 20.203 11.006c7.764 4.218 14.329 8.02 14.597 8.456 0.267 0.437-2.03 6.094-5.1 12.565-3.08 6.481-8.18 18.252-11.349 26.171-3.674 9.201-6.21 14.282-7.022 14.084-3.525-0.864-23.718-8.536-24.985-9.498-1.258-0.953-0.753-2.948 3.505-14.014 2.734-7.096 5.19-13.587 5.467-14.411 0.347-1.042-0.891-2.193-3.932-3.672l-4.426-2.154-3.971 9.121c-3.209 7.364-12.043 31.601-12.043 33.03 0 0.188 8.507 3.086 18.905 6.431l18.915 6.074-0.683 3.622c-0.812 4.377-1.248 5.161-2.783 5.032-0.643-0.049-7.189-1.985-14.547-4.307zm31.581-92.737c-10.676-7.016-19.717-13.239-20.074-13.825-1.446-2.342 33.572-51.301 36.701-51.301 1.397 0 21.114 16.307 21.114 17.458 0 0.476-2.813 4.565-6.259 9.071-3.436 4.516-7.457 9.826-8.933 11.801l-2.674 3.592 4.655 3.037 4.664 3.037 5.586-7.622c3.07-4.198 8.784-11.403 12.696-16.018 5.545-6.561 6.833-8.645 5.862-9.518-14.528-13.121-27.481-25.685-27.481-26.658 0-1.657 4.536-5.855 5.853-5.409 1.921 0.655 34.75 31.819 34.73 32.97-0.02 0.625-4.734 6.709-10.497 13.537-5.754 6.829-13.627 16.753-17.499 22.073-6.229 8.565-7.229 9.528-8.764 8.436-16.301-11.612-20.658-15.086-20.649-16.465 0.01-0.903 3.754-6.868 8.329-13.26l8.299-11.611-3.298-2.531c-1.822-1.39-3.733-2.521-4.258-2.521-2.308 0-26.699 34.429-25.273 35.669 0.465 0.397 7.299 4.903 15.201 9.994 18.519 11.97 17.539 11.007 15.231 14.967-1.04 1.776-2.317 3.364-2.862 3.543-0.534 0.169-9.715-5.429-20.4-12.446zm633.91 1.132c-8.953-13.359-17.113-24.375-23.966-32.375-3.208-3.741-5.664-7.314-5.466-7.939 0.485-1.479 20.747-18.599 21.608-18.262 1.02 0.397 13.805 15.513 18.064 21.358l3.802 5.211 2.724-1.946c5.773-4.118 5.763-4.247-0.981-13.17-5.991-7.93-22.193-27.124-23.658-28.037-0.396-0.248-7.14 5.568-14.984 12.912-7.843 7.344-14.518 13.359-14.835 13.359-0.307 0-1.871-1.38-3.466-3.077l-2.911-3.067 17.33-16.743c9.527-9.21 17.786-16.762 18.351-16.782 3.09-0.1 37.572 40.939 42.623 50.715 1.347 2.61 1.268 2.779-2.307 4.992-2.04 1.26-7.111 4.863-11.28 8.019-4.169 3.146-7.952 5.687-8.418 5.657-0.465-0.029-5.239-6.054-10.616-13.378l-9.774-13.329-3.843 3.047c-2.119 1.677-3.842 3.513-3.842 4.089 0 0.575 2.466 4.109 5.486 7.85 3.011 3.742 8.408 11.165 11.993 16.485 3.575 5.33 6.863 10.074 7.298 10.54 0.436 0.467 2.724-0.476 5.091-2.094 7.387-5.052 28.511-18.113 29.293-18.103 0.416 0 1.763 1.777 3.001 3.941l2.238 3.94-3.724 2.352c-24.272 15.304-36.107 22.638-37.146 22.995-0.723 0.258-3.942-3.573-7.685-9.16zm-572.98-78.256c-8.675-9.598-15.895-17.795-16.053-18.222-0.674-1.836 27.937-26.986 45.495-39.997l3.605-2.67 5.219 7.662c2.872 4.218 6.773 9.617 8.685 11.999 3.159 3.95 3.307 4.427 1.713 5.32-2.525 1.409-21.787 17.626-22.153 18.648-0.179 0.477 1.158 2.432 2.971 4.357l3.278 3.504 7.922-6.451c4.357-3.543 11.844-9.161 16.647-12.466 8.448-5.835 8.675-6.093 7.2-8.168-4.259-5.974-18.757-29.149-19.143-30.588-0.287-1.101 0.584-2.193 2.575-3.225 1.664-0.864 3.278-1.568 3.595-1.568 0.881 0 26.263 38.776 26.263 40.125 0 0.645-5.011 4.605-11.141 8.794-9.319 6.371-20.787 15.045-33.017 24.96-2.169 1.757-2.496 1.787-3.625 0.348-0.683-0.884-4.763-5.896-9.071-11.156l-7.824-9.557 3.367-3.494c1.862-1.925 7.269-6.471 12.013-10.103l8.645-6.6-2.337-3.97c-1.287-2.183-2.763-4.109-3.288-4.277-1.257-0.427-19.35 13.974-28.263 22.489l-7.121 6.808 11.369 12.267c17.044 18.411 15.687 16.237 12.34 19.731-1.555 1.627-3.11 2.957-3.466 2.957-0.347 0-7.725-7.85-16.4-17.457zm512.82 7.552c-6.833-6.381-23.54-19.75-33.166-26.529-4.208-2.967-7.833-5.696-8.051-6.064-0.594-1.012 14.073-23.005 15.766-23.66 0.891-0.337 6.001 2.888 13.052 8.237 15.628 11.861 13.964 11.235 17.846 6.739l3.327-3.86-3.268-2.74c-3.545-2.957-28.055-20.484-33.106-23.67l-3.1-1.955-8.229 13.666c-4.536 7.513-9.27 15.344-10.537 17.388l-2.308 3.732-3.703-2.392c-2.031-1.32-3.566-2.948-3.397-3.622 0.238-1.013 13.943-23.949 22.698-37.972l2.367-3.792 4.644 2.71c10.468 6.094 36.741 24.861 48.169 34.409l2.912 2.421-3.853 5.36c-4.704 6.54-13.349 17.16-14.25 17.517-0.357 0.139-6.566-4.496-13.785-10.302-7.22-5.806-13.241-10.391-13.38-10.183-0.138 0.209-1.455 2.263-2.921 4.556l-2.674 4.178 4.159 3.265c2.288 1.797 9.953 7.92 17.044 13.617l12.884 10.341 13.399-14.063c7.368-7.741 13.874-14.073 14.449-14.073 0.584 0 2.307 1.31 3.842 2.918l2.793 2.918-16.549 17.924c-9.091 9.855-16.845 17.904-17.211 17.884-0.367-0.02-3.001-2.223-5.863-4.903zm-434.39-68.113c-9.23-16.862-11.458-21.636-10.388-22.321 7.982-5.081 48.218-23.879 55.952-26.131 1.922-0.566 2.496 0.486 6.685 12.187 2.525 7.047 4.585 13.25 4.585 13.795 0 0.536-5.456 3.315-12.131 6.164-6.675 2.848-12.528 5.557-13.003 6.014-1.129 1.072 2.525 10.064 3.842 9.468 6.358-2.878 32.968-13.458 33.859-13.458 0.654 0 1.426-0.407 1.733-0.903 0.307-0.486-1.891-8.942-4.892-18.767-2.991-9.826-5.447-18.321-5.447-18.867 0-1.38 6.923-3.563 7.923-2.511 0.446 0.466 3.773 10.381 7.398 22.033 3.624 11.641 6.833 21.794 7.13 22.568 0.287 0.765-0.069 1.598-0.812 1.846-9.398 3.146-31.354 11.751-39.682 15.552-5.843 2.67-11.072 4.854-11.626 4.854-1.001 0-12.914-22.867-12.914-24.782 0-1.082 9.428-5.985 20.054-10.431 3.674-1.539 6.684-2.878 6.684-2.968 0-1.469-3.386-9.458-4.01-9.458-1.387 0-5.507 1.836-22.956 10.232l-16.568 7.98 9.359 18.013 9.358 18.023-3.466 1.658c-1.911 0.913-3.793 1.657-4.189 1.657s-6.011-9.656-12.478-21.447zm355.41 13.805c-10.853-5.587-26.778-12.614-37.988-16.773-5.655-2.094-10.448-4.267-10.666-4.833-0.208-0.566 1.565-6.828 3.942-13.924 3.921-11.672 4.545-12.883 6.546-12.644 1.218 0.139 8.437 2.749 16.053 5.796 7.605 3.057 13.983 5.399 14.161 5.21 0.545-0.595 3.496-7.989 3.496-8.793 0-1.35-41.583-16.862-45.218-16.862-0.683 0-1.683 1.677-2.208 3.722-6.2 23.978-8.378 31.957-9.062 33.059-0.643 1.042-1.564 1.062-4.832 0.079-2.219-0.665-4.041-1.548-4.041-1.955s2.674-10.907 5.942-23.323c3.268-12.426 5.942-22.797 5.942-23.045 0-2.7196 45.218 12.674 61.459 20.921l4.823 2.451-3.298 7.692c-1.802 4.228-4.318 10.153-5.585 13.15-1.258 2.998-2.337 5.548-2.407 5.667-0.059 0.11-6.328-2.391-13.934-5.567-19.479-8.139-17.825-7.92-19.172-2.561-0.634 2.501-0.921 4.913-0.644 5.359 0.278 0.447 3.298 1.846 6.715 3.107 3.416 1.26 11.913 4.893 18.885 8.069 6.972 3.175 13.013 5.776 13.419 5.776 0.416 0 4.466-7.255 9.012-16.128 4.555-8.873 8.695-16.673 9.209-17.338 0.723-0.933 1.842-0.745 4.863 0.794 2.169 1.111 3.793 2.332 3.624 2.719-1.247 2.809-21.777 43.837-21.915 43.798-0.109-0.03-3.308-1.658-7.121-3.623zm-263.8-49.613c-2.862-12.456-5.387-23.214-5.615-23.919-0.525-1.628-0.713-1.568 16.954-5.5478 15.211-3.434 45.575-8.307 46.426-7.4436 0.525 0.5161 3.516 23.839 3.516 27.392 0 1.985-0.505 2.273-4.209 2.332-5.952 0.109-24.599 3.255-24.55 4.149 0.02 0.407 0.05 2.193 0.059 3.97 0.02 5.885 0.347 5.964 13.895 3.751 6.754-1.102 15.795-2.302 20.103-2.66l7.814-0.655-0.585-6.044c-0.326-3.335-0.891-12.416-1.257-20.197l-0.674-14.142h9.091l0.505 4.218c0.288 2.3224 1.02 12.703 1.624 23.075 0.614 10.371 1.308 19.551 1.535 20.395 0.357 1.29-1.683 1.727-12.705 2.729-7.22 0.655-20.411 2.342-29.324 3.732-8.902 1.399-16.389 2.342-16.627 2.104s-1.466-6.511-2.713-13.944l-2.278-13.518 3.555-1.012c1.961-0.556 8.834-1.995 15.261-3.206l11.705-2.183-0.673-4.992c-0.366-2.75-0.743-5.0719-0.832-5.1811-0.327-0.3871-28.204 4.6351-35.76 6.4511l-7.923 1.896 0.327 3.364c0.178 1.856 2.001 10.51 4.06 19.244 2.06 8.734 3.476 16.167 3.14 16.525-0.327 0.347-2.407 0.933-4.625 1.29l-4.021 0.655-5.199-22.628zm168.41 16.991c-9.804-1.936-22.123-3.653-43.118-5.995l-5.803-0.645 0.623-8.555c0.347-4.704 0.882-11.126 1.199-14.262l0.574-5.707h5.803c3.199 0 10.29 0.507 15.776 1.132 5.477 0.625 10.111 0.963 10.299 0.744 0.189-0.208 0.565-2.461 0.832-4.992l0.495-4.615-9.021-1.1015c-15.053-1.8361-36.563-3.1759-37.405-2.3323-0.435 0.4367-0.921 9.4978-1.069 20.127l-0.267 19.324-4.863 0.308-4.862 0.307 0.594-24.98c0.337-13.736 0.812-25.199 1.079-25.457 1.397-1.3994 64.807 4.1485 66.47 5.8158 0.525 0.5161-3.238 27.739-3.931 28.434-0.268 0.268-6.903-0.318-14.746-1.3-7.834-0.983-14.974-1.519-15.855-1.171-1.149 0.436-1.604 1.876-1.604 5.051v4.437l4.208 0.506c6.972 0.844 32.73 4.625 35.602 5.22 3.14 0.655 2.466 2.779 6.873-21.725l3.159-17.596 4.051 0.6054c2.218 0.3374 4.337 0.8932 4.704 1.2306 0.356 0.3375-0.179 4.9623-1.189 10.282-1.02 5.319-2.832 16.038-4.02 23.819-1.199 7.781-2.447 14.411-2.783 14.728-0.327 0.318-5.635-0.426-11.805-1.637zm-146.74 552.84c0-0.645 14.696-18.202 19.688-23.532l3.495-3.722h111.21l11.042 13.399c6.071 7.374 11.032 13.626 11.032 13.894 0 0.278-35.206 0.497-78.235 0.497s-78.235-0.239-78.235-0.536zm-3.961-29.526c0-15.126 0.158-27.502 0.356-27.502 0.278 0 17.044 20.505 21.708 26.549 0.693 0.893-1.901 4.664-9.22 13.398-5.595 6.689-10.784 12.813-11.517 13.607-1.109 1.221-1.327-2.948-1.327-26.052zm153.31 14.281c-5.813-6.937-10.715-13.13-10.894-13.745-0.168-0.626 4.595-7.196 10.587-14.62l10.893-13.487 0.278 13.994c0.148 7.691 0.148 19.948 0 27.233l-0.278 13.25-10.586-12.625zm-128.7-18.708c-2-2.173-15.558-19.045-19.945-24.812-0.752-0.982 3.278-1.24 19.401-1.24h20.351l15.914 14.014c8.764 7.701 15.924 14.182 15.924 14.39 0 0.209-11.062 0.377-24.569 0.377h-24.58l-2.496-2.729zm65.044 0.854c1.07-1.032 8.368-7.503 16.222-14.391l14.26-12.515h20.232c12.013 0 20.094 0.377 19.896 0.923-0.178 0.506-5.001 6.58-10.725 13.507-5.724 6.918-10.547 12.982-10.725 13.468-0.189 0.486-11.756 0.883-25.729 0.883-24.916 0-25.352-0.039-23.431-1.875zm-21.282-11.076c-6.249-5.568-13.488-11.92-16.092-14.123l-4.744-4 0.02-132.1 0.03-132.09 16.063-14.539 16.072-14.54 0.258 80.291c0.138 44.155 0.138 116.5 0 160.75l-0.258 80.45-11.349-10.103zm15.806-150.71c0-156.12 0.059-160.95 1.822-159.7 1 0.714 8.358 7.314 16.34 14.668l14.518 13.379v264.3l-14.607 12.703c-8.031 6.987-15.389 13.369-16.34 14.173-1.654 1.389-1.733-6.312-1.733-159.53zm-80.216-135.58c0-0.278 5.16-6.759 11.468-14.391l11.468-13.885h49.813l-2.951 2.849c-1.624 1.568-8.626 8.049-15.558 14.39l-12.617 11.543h-20.806c-11.448 0-20.817-0.228-20.817-0.506zm102.26-11.047c-6.952-6.351-13.963-12.822-15.587-14.39l-2.952-2.839 25.234 0.04 25.233 0.05 10.893 13.497c5.992 7.434 11.043 13.885 11.221 14.351 0.188 0.467-9.062 0.844-20.539 0.844h-20.876l-12.627-11.553zm-106.22-19.392v-26.976l3.714 4.357c2.04 2.392 7.17 8.387 11.378 13.329 4.219 4.933 7.547 9.369 7.388 9.865-0.495 1.499-20.945 26.291-21.737 26.35-0.406 0.03-0.743-12.088-0.743-26.925zm153 14.271c-5.992-7.265-10.894-13.597-10.894-14.093 0-0.486 4.902-6.6 10.894-13.597l10.893-12.703 0.278 13.09c0.148 7.196 0.148 19.254 0 26.797l-0.278 13.706-10.893-13.2zm-129.36-19.799c-4.259-4.546-19.688-22.738-19.688-23.224 0-0.467 155.5-0.159 155.96 0.307 0.198 0.199-4.753 6.273-11.012 13.498l-11.379 13.14h-110.39l-3.495-3.721z"
      fill="#BA7659" />
  </svg>
  <text x="166" y="98" font-size="42" font-weight="700" fill="#F6EEE9">HyperDown</text>
  <text x="167" y="128" font-size="21" font-weight="500" fill="#D6A488">MD/MDX + FrontMatter → SQLite FTS5 · full-text
    search, server-side</text>

  <!-- Pipeline -->
  <g filter="url(#soft)">
    <!-- 1: source files -->
    <rect x="80" y="266" width="280" height="176" rx="22" fill="#371A35" stroke="#6E4357" stroke-width="1.5" />
    <rect x="120" y="290" width="118" height="96" rx="10" fill="#2A1228" stroke="#BB795A" stroke-width="2" />
    <line x1="138" y1="332" x2="220" y2="332" stroke="#D6A488" stroke-width="5" stroke-linecap="round" />
    <line x1="138" y1="352" x2="206" y2="352" stroke="#7E5C6E" stroke-width="5" stroke-linecap="round" />
    <line x1="138" y1="372" x2="214" y2="372" stroke="#7E5C6E" stroke-width="5" stroke-linecap="round" />
    <text x="258" y="345" font-size="22" font-weight="700" fill="#F6EEE9">.md</text>
    <text x="258" y="378" font-size="22" font-weight="700" fill="#F6EEE9">.mdx</text>
    <text x="160" y="420" font-size="17" fill="#C9B3C0" text-anchor="middle">content/</text>

    <!-- 2: SQLite FTS (highlighted) -->
    <rect x="460" y="266" width="280" height="176" rx="22" fill="url(#terr)" />
    <ellipse cx="600" cy="300" rx="58" ry="16" fill="#2A1228" opacity="0.85" />
    <path d="M542 300 v44 a58 16 0 0 0 116 0 v-44" fill="none" stroke="#2A1228" stroke-width="6" opacity="0.85" />
    <path d="M542 320 a58 16 0 0 0 116 0" fill="none" stroke="#2A1228" stroke-width="6" opacity="0.85" />
    <text x="600" y="400" font-size="25" font-weight="800" fill="#241022" text-anchor="middle">SQLite</text>
    <text x="600" y="422" font-size="20" font-weight="800" fill="#3B1A2E" text-anchor="middle">FTS · contentless</text>

    <!-- 3: search -->
    <rect x="840" y="266" width="280" height="176" rx="22" fill="#371A35" stroke="#6E4357" stroke-width="1.5" />
    <rect x="876" y="300" width="208" height="46" rx="23" fill="#2A1228" stroke="#BB795A" stroke-width="2" />
    <circle cx="904" cy="323" r="11" fill="none" stroke="#D6A488" stroke-width="4" />
    <line x1="912" y1="331" x2="922" y2="341" stroke="#D6A488" stroke-width="4" stroke-linecap="round" />
    <text x="855" y="250" font-size="18" fill="#C9B3C0">Query &amp; Full Text Search…</text>
    <line x1="876" y1="372" x2="1064" y2="372" stroke="#BB795A" stroke-width="5" stroke-linecap="round" />
    <line x1="876" y1="394" x2="1020" y2="394" stroke="#6E4357" stroke-width="5" stroke-linecap="round" />
    <line x1="876" y1="416" x2="1044" y2="416" stroke="#6E4357" stroke-width="5" stroke-linecap="round" />
  </g>

  <!-- Arrows -->
  <g stroke="#D6A488" stroke-width="4" fill="#D6A488">
    <line x1="372" y1="354" x2="446" y2="354" stroke-linecap="round" />
    <path d="M446 354 l-14 -8 v16 z" />
    <line x1="752" y1="354" x2="826" y2="354" stroke-linecap="round" />
    <path d="M826 354 l-14 -8 v16 z" />
  </g>
  <text x="409" y="334" font-size="15" fill="#A98B9C" text-anchor="middle">build</text>
  <text x="789" y="334" font-size="15" fill="#A98B9C" text-anchor="middle">query</text>

  <!-- Footer -->
  <line x1="80" y1="520" x2="1120" y2="520" stroke="#4A2A45" stroke-width="1.5" />
  <text x="80" y="560" font-size="19" font-weight="600" fill="#BB795A"
    font-family="'DejaVu Sans Mono',monospace">@indago/hyper-down</text>
  <text x="1120" y="560" font-size="18" fill="#9A8194" text-anchor="end">body tokenized with inverted index, without content store — the .db stays
    tiny</text>
</svg>